<svg width="15" height="15" viewBox="0 0 15 15" fill="none" xmlns="http://www.w3.org/2000/svg">
<path d="M12.8663 0.0483398C13.2789 0.0483398 13.6745 0.212228 13.9663 0.503951C14.258 0.795675 14.4219 1.19134 14.4219 1.6039V12.4928C14.4219 12.9053 14.258 13.301 13.9663 13.5927C13.6745 13.8845 13.2789 14.0483 12.8663 14.0483H1.97743C1.56487 14.0483 1.16921 13.8845 0.877487 13.5927C0.585763 13.301 0.421875 12.9053 0.421875 12.4928V1.6039C0.421875 1.19134 0.585763 0.795675 0.877487 0.503951C1.16921 0.212228 1.56487 0.0483398 1.97743 0.0483398H12.8663ZM12.4774 12.1039V7.98167C12.4774 7.3092 12.2103 6.66427 11.7348 6.18876C11.2593 5.71326 10.6143 5.44612 9.94188 5.44612C9.28076 5.44612 8.51076 5.85056 8.13743 6.45723V5.5939H5.96743V12.1039H8.13743V8.26945C8.13743 7.67056 8.61965 7.18056 9.21854 7.18056C9.50733 7.18056 9.7843 7.29528 9.9885 7.49949C10.1927 7.7037 10.3074 7.98066 10.3074 8.26945V12.1039H12.4774ZM3.43965 4.37278C3.7862 4.37278 4.11856 4.23512 4.36361 3.99007C4.60865 3.74502 4.74632 3.41267 4.74632 3.06612C4.74632 2.34278 4.16299 1.75167 3.43965 1.75167C3.09104 1.75167 2.75671 1.89016 2.5102 2.13667C2.26369 2.38317 2.12521 2.71751 2.12521 3.06612C2.12521 3.78945 2.71632 4.37278 3.43965 4.37278ZM4.52076 12.1039V5.5939H2.36632V12.1039H4.52076Z" fill="white"/>
</svg>
