<svg width="1512" height="476" viewBox="0 0 1512 476" fill="none" xmlns="http://www.w3.org/2000/svg">
<rect width="1512" height="476" fill="#A8F3EA"/>
<rect x="968.503" y="182.611" width="7.8342" height="6.92364" fill="black"/>
<path d="M1462.55 188.169H1406.76C1393.23 188.169 1382.26 177.2 1382.26 163.669V138.853C1382.26 113.632 1415.77 104.866 1428.12 126.858L1462.55 188.169ZM1511.5 273.303L1464.26 189.169H1511.5V273.303Z" fill="#345FF9" stroke="#8000E2"/>
<path d="M1381.76 163.669C1381.76 177.476 1392.95 188.669 1406.76 188.669H1512V275.215L1428.55 126.613C1415.95 104.173 1381.76 113.117 1381.76 138.853V163.669Z" fill="#345FF9"/>
<path d="M161.972 214.697C147.645 198.574 159.091 173.091 180.66 173.091H196.03C203.172 173.091 209.974 176.146 214.718 181.485L243.732 214.135C258.06 230.259 246.614 255.742 225.045 255.742H209.674C202.532 255.742 195.731 252.687 190.987 247.348L161.972 214.697Z" fill="#345FF9"/>
<path d="M1055.76 402.09C1045.46 390.474 1053.71 372.145 1069.23 372.145V372.145C1074.38 372.145 1079.29 374.352 1082.7 378.207L1093.75 390.667C1104.04 402.282 1095.8 420.611 1080.28 420.611V420.611C1075.12 420.611 1070.22 418.404 1066.8 414.55L1055.76 402.09Z" fill="#4434F9"/>
<path d="M306.81 261.763C296.832 250.547 304.794 232.807 319.806 232.807V232.807C324.772 232.807 329.502 234.93 332.803 238.641L343.429 250.586C353.406 261.802 345.444 279.542 330.432 279.542V279.542C325.466 279.542 320.736 277.419 317.436 273.708L306.81 261.763Z" fill="#4F34F9"/>
<path d="M1395.84 260.684C1390.43 255.222 1389.38 246.797 1393.28 240.173L1393.69 239.49C1399.67 229.342 1413.81 227.966 1421.64 236.769V236.769C1431.6 247.973 1423.65 265.695 1408.65 265.695H1407.86C1403.35 265.695 1399.02 263.891 1395.84 260.684V260.684Z" fill="#345FF9"/>
<path d="M77.9446 331.142L77.4985 326.904C76.7746 320.026 85.0745 314.799 91.7195 317.947L96.5319 320.227C103.177 323.375 102.559 332.242 95.4726 335.419L91.1063 337.377C85.2128 340.02 78.5467 336.862 77.9446 331.142Z" stroke="#345FF9" stroke-width="2"/>
<path d="M127.132 411.587L57.0311 391.649C49.5956 389.534 47.6692 381.069 53.6988 377.006L118.662 333.229C124.691 329.166 133.699 332.858 134.244 339.617L139.382 403.332C139.852 409.157 133.541 413.41 127.132 411.587Z" stroke="#345FF9" stroke-width="2"/>
<path d="M422.547 97.7964C422.547 121.363 400.909 140.569 374.083 140.569C347.257 140.569 325.619 121.363 325.619 97.7964C325.619 74.2299 347.257 55.0236 374.083 55.0236C400.909 55.0236 422.547 74.2299 422.547 97.7964Z" stroke="black"/>
<rect x="0.746498" y="0.0587409" width="114.808" height="114.397" rx="19.5" transform="matrix(0.798491 -0.602006 0.694505 0.719488 1140.96 163.652)" stroke="black"/>
<path d="M440.153 54.9564C440.153 58.4999 436.839 61.6782 432.35 61.6782C427.861 61.6782 424.547 58.4999 424.547 54.9564C424.547 51.4128 427.861 48.2346 432.35 48.2346C436.839 48.2346 440.153 51.4128 440.153 54.9564Z" stroke="black" stroke-width="3"/>
<path d="M1011.07 345.316C1011.07 346.588 1009.65 348.144 1007.18 348.144C1004.71 348.144 1003.3 346.588 1003.3 345.316C1003.3 344.045 1004.71 342.489 1007.18 342.489C1009.65 342.489 1011.07 344.045 1011.07 345.316Z" stroke="black" stroke-width="3"/>
<path d="M993.443 332.767C993.443 336.311 990.129 339.489 985.64 339.489C981.151 339.489 977.837 336.311 977.837 332.767C977.837 329.224 981.151 326.045 985.64 326.045C990.129 326.045 993.443 329.224 993.443 332.767Z" stroke="black" stroke-width="3"/>
<g filter="url(#filter0_d_26_5)">
<rect x="563" y="294" width="181" height="56" rx="28" fill="url(#paint0_linear_26_5)"/>
</g>
<path d="M542.668 150.732H536.368L540.4 141.084H544.54L542.668 150.732ZM550.84 150.732H544.576L548.608 141.084H552.712L550.84 150.732ZM580.789 141.084V146.016H570.493V151.344H578.197V156.132H570.493V166.356H564.337V141.084H580.789ZM590.181 149.616C590.901 148.512 591.801 147.648 592.881 147.024C593.961 146.376 595.161 146.052 596.481 146.052V152.568H594.789C593.253 152.568 592.101 152.904 591.333 153.576C590.565 154.224 590.181 155.376 590.181 157.032V166.356H584.025V146.268H590.181V149.616ZM608.567 166.644C606.599 166.644 604.823 166.224 603.239 165.384C601.679 164.544 600.443 163.344 599.531 161.784C598.643 160.224 598.199 158.4 598.199 156.312C598.199 154.248 598.655 152.436 599.567 150.876C600.479 149.292 601.727 148.08 603.311 147.24C604.895 146.4 606.671 145.98 608.639 145.98C610.607 145.98 612.383 146.4 613.967 147.24C615.551 148.08 616.799 149.292 617.711 150.876C618.623 152.436 619.079 154.248 619.079 156.312C619.079 158.376 618.611 160.2 617.675 161.784C616.763 163.344 615.503 164.544 613.895 165.384C612.311 166.224 610.535 166.644 608.567 166.644ZM608.567 161.316C609.743 161.316 610.739 160.884 611.555 160.02C612.395 159.156 612.815 157.92 612.815 156.312C612.815 154.704 612.407 153.468 611.591 152.604C610.799 151.74 609.815 151.308 608.639 151.308C607.439 151.308 606.443 151.74 605.651 152.604C604.859 153.444 604.463 154.68 604.463 156.312C604.463 157.92 604.847 159.156 605.615 160.02C606.407 160.884 607.391 161.316 608.567 161.316ZM647.977 146.052C650.473 146.052 652.453 146.808 653.917 148.32C655.405 149.832 656.149 151.932 656.149 154.62V166.356H650.029V155.448C650.029 154.152 649.681 153.156 648.985 152.46C648.313 151.74 647.377 151.38 646.177 151.38C644.977 151.38 644.029 151.74 643.333 152.46C642.661 153.156 642.325 154.152 642.325 155.448V166.356H636.205V155.448C636.205 154.152 635.857 153.156 635.161 152.46C634.489 151.74 633.553 151.38 632.353 151.38C631.153 151.38 630.205 151.74 629.509 152.46C628.837 153.156 628.501 154.152 628.501 155.448V166.356H622.345V146.268H628.501V148.788C629.125 147.948 629.941 147.288 630.949 146.808C631.957 146.304 633.097 146.052 634.369 146.052C635.881 146.052 637.225 146.376 638.401 147.024C639.601 147.672 640.537 148.596 641.209 149.796C641.905 148.692 642.853 147.792 644.053 147.096C645.253 146.4 646.561 146.052 647.977 146.052ZM752.545 166.644C750.793 166.644 749.233 166.344 747.865 165.744C746.497 165.144 745.417 164.328 744.625 163.296C743.833 162.24 743.389 161.064 743.293 159.768H749.377C749.449 160.464 749.773 161.028 750.349 161.46C750.925 161.892 751.633 162.108 752.473 162.108C753.241 162.108 753.829 161.964 754.237 161.676C754.669 161.364 754.885 160.968 754.885 160.488C754.885 159.912 754.585 159.492 753.985 159.228C753.385 158.94 752.413 158.628 751.069 158.292C749.629 157.956 748.429 157.608 747.469 157.248C746.509 156.864 745.681 156.276 744.985 155.484C744.289 154.668 743.941 153.576 743.941 152.208C743.941 151.056 744.253 150.012 744.877 149.076C745.525 148.116 746.461 147.36 747.685 146.808C748.933 146.256 750.409 145.98 752.113 145.98C754.633 145.98 756.613 146.604 758.053 147.852C759.517 149.1 760.357 150.756 760.573 152.82H754.885C754.789 152.124 754.477 151.572 753.949 151.164C753.445 150.756 752.773 150.552 751.933 150.552C751.213 150.552 750.661 150.696 750.277 150.984C749.893 151.248 749.701 151.62 749.701 152.1C749.701 152.676 750.001 153.108 750.601 153.396C751.225 153.684 752.185 153.972 753.481 154.26C754.969 154.644 756.181 155.028 757.117 155.412C758.053 155.772 758.869 156.372 759.565 157.212C760.285 158.028 760.657 159.132 760.681 160.524C760.681 161.7 760.345 162.756 759.673 163.692C759.025 164.604 758.077 165.324 756.829 165.852C755.605 166.38 754.177 166.644 752.545 166.644ZM775.643 161.136V166.356H772.511C770.279 166.356 768.539 165.816 767.291 164.736C766.043 163.632 765.419 161.844 765.419 159.372V151.38H762.971V146.268H765.419V141.372H771.575V146.268H775.607V151.38H771.575V159.444C771.575 160.044 771.719 160.476 772.007 160.74C772.295 161.004 772.775 161.136 773.447 161.136H775.643ZM777.848 156.276C777.848 154.212 778.232 152.4 779 150.84C779.792 149.28 780.86 148.08 782.204 147.24C783.548 146.4 785.048 145.98 786.704 145.98C788.12 145.98 789.356 146.268 790.412 146.844C791.492 147.42 792.32 148.176 792.896 149.112V146.268H799.052V166.356H792.896V163.512C792.296 164.448 791.456 165.204 790.376 165.78C789.32 166.356 788.084 166.644 786.668 166.644C785.036 166.644 783.548 166.224 782.204 165.384C780.86 164.52 779.792 163.308 779 161.748C778.232 160.164 777.848 158.34 777.848 156.276ZM792.896 156.312C792.896 154.776 792.464 153.564 791.6 152.676C790.76 151.788 789.728 151.344 788.504 151.344C787.28 151.344 786.236 151.788 785.372 152.676C784.532 153.54 784.112 154.74 784.112 156.276C784.112 157.812 784.532 159.036 785.372 159.948C786.236 160.836 787.28 161.28 788.504 161.28C789.728 161.28 790.76 160.836 791.6 159.948C792.464 159.06 792.896 157.848 792.896 156.312ZM814.701 161.136V166.356H811.569C809.337 166.356 807.597 165.816 806.349 164.736C805.101 163.632 804.477 161.844 804.477 159.372V151.38H802.029V146.268H804.477V141.372H810.633V146.268H814.665V151.38H810.633V159.444C810.633 160.044 810.777 160.476 811.065 160.74C811.353 161.004 811.833 161.136 812.505 161.136H814.701ZM837.066 155.988C837.066 156.564 837.03 157.164 836.958 157.788H823.026C823.122 159.036 823.518 159.996 824.214 160.668C824.934 161.316 825.81 161.64 826.842 161.64C828.378 161.64 829.446 160.992 830.046 159.696H836.598C836.262 161.016 835.65 162.204 834.762 163.26C833.898 164.316 832.806 165.144 831.486 165.744C830.166 166.344 828.69 166.644 827.058 166.644C825.09 166.644 823.338 166.224 821.802 165.384C820.266 164.544 819.066 163.344 818.202 161.784C817.338 160.224 816.906 158.4 816.906 156.312C816.906 154.224 817.326 152.4 818.166 150.84C819.03 149.28 820.23 148.08 821.766 147.24C823.302 146.4 825.066 145.98 827.058 145.98C829.002 145.98 830.73 146.388 832.242 147.204C833.754 148.02 834.93 149.184 835.77 150.696C836.634 152.208 837.066 153.972 837.066 155.988ZM830.766 154.368C830.766 153.312 830.406 152.472 829.686 151.848C828.966 151.224 828.066 150.912 826.986 150.912C825.954 150.912 825.078 151.212 824.358 151.812C823.662 152.412 823.23 153.264 823.062 154.368H830.766ZM865.946 146.052C868.442 146.052 870.422 146.808 871.886 148.32C873.374 149.832 874.118 151.932 874.118 154.62V166.356H867.998V155.448C867.998 154.152 867.65 153.156 866.954 152.46C866.282 151.74 865.346 151.38 864.146 151.38C862.946 151.38 861.998 151.74 861.302 152.46C860.63 153.156 860.294 154.152 860.294 155.448V166.356H854.174V155.448C854.174 154.152 853.826 153.156 853.13 152.46C852.458 151.74 851.522 151.38 850.322 151.38C849.122 151.38 848.174 151.74 847.478 152.46C846.806 153.156 846.47 154.152 846.47 155.448V166.356H840.314V146.268H846.47V148.788C847.094 147.948 847.91 147.288 848.918 146.808C849.926 146.304 851.066 146.052 852.338 146.052C853.85 146.052 855.194 146.376 856.37 147.024C857.57 147.672 858.506 148.596 859.178 149.796C859.874 148.692 860.822 147.792 862.022 147.096C863.222 146.4 864.53 146.052 865.946 146.052ZM897.359 155.988C897.359 156.564 897.323 157.164 897.251 157.788H883.319C883.415 159.036 883.811 159.996 884.507 160.668C885.227 161.316 886.103 161.64 887.135 161.64C888.671 161.64 889.739 160.992 890.339 159.696H896.891C896.555 161.016 895.943 162.204 895.055 163.26C894.191 164.316 893.099 165.144 891.779 165.744C890.459 166.344 888.983 166.644 887.351 166.644C885.383 166.644 883.631 166.224 882.095 165.384C880.559 164.544 879.359 163.344 878.495 161.784C877.631 160.224 877.199 158.4 877.199 156.312C877.199 154.224 877.619 152.4 878.459 150.84C879.323 149.28 880.523 148.08 882.059 147.24C883.595 146.4 885.359 145.98 887.351 145.98C889.295 145.98 891.023 146.388 892.535 147.204C894.047 148.02 895.223 149.184 896.063 150.696C896.927 152.208 897.359 153.972 897.359 155.988ZM891.059 154.368C891.059 153.312 890.699 152.472 889.979 151.848C889.259 151.224 888.359 150.912 887.279 150.912C886.247 150.912 885.371 151.212 884.651 151.812C883.955 152.412 883.523 153.264 883.355 154.368H891.059ZM912.847 146.052C915.199 146.052 917.071 146.82 918.463 148.356C919.879 149.868 920.587 151.956 920.587 154.62V166.356H914.467V155.448C914.467 154.104 914.119 153.06 913.423 152.316C912.727 151.572 911.791 151.2 910.615 151.2C909.439 151.2 908.503 151.572 907.807 152.316C907.111 153.06 906.763 154.104 906.763 155.448V166.356H900.607V146.268H906.763V148.932C907.387 148.044 908.227 147.348 909.283 146.844C910.339 146.316 911.527 146.052 912.847 146.052ZM936.061 161.136V166.356H932.929C930.697 166.356 928.957 165.816 927.709 164.736C926.461 163.632 925.837 161.844 925.837 159.372V151.38H923.389V146.268H925.837V141.372H931.993V146.268H936.025V151.38H931.993V159.444C931.993 160.044 932.137 160.476 932.425 160.74C932.713 161.004 933.193 161.136 933.865 161.136H936.061Z" fill="black"/>
<path d="M586.995 231.238V236.458H583.863C581.631 236.458 579.891 235.918 578.643 234.838C577.395 233.734 576.771 231.946 576.771 229.474V221.482H574.323V216.37H576.771V211.474H582.927V216.37H586.959V221.482H582.927V229.546C582.927 230.146 583.071 230.578 583.359 230.842C583.647 231.106 584.127 231.238 584.799 231.238H586.995ZM599.568 236.746C597.6 236.746 595.824 236.326 594.24 235.486C592.68 234.646 591.444 233.446 590.532 231.886C589.644 230.326 589.2 228.502 589.2 226.414C589.2 224.35 589.656 222.538 590.568 220.978C591.48 219.394 592.728 218.182 594.312 217.342C595.896 216.502 597.672 216.082 599.64 216.082C601.608 216.082 603.384 216.502 604.968 217.342C606.552 218.182 607.8 219.394 608.712 220.978C609.624 222.538 610.08 224.35 610.08 226.414C610.08 228.478 609.612 230.302 608.676 231.886C607.764 233.446 606.504 234.646 604.896 235.486C603.312 236.326 601.536 236.746 599.568 236.746ZM599.568 231.418C600.744 231.418 601.74 230.986 602.556 230.122C603.396 229.258 603.816 228.022 603.816 226.414C603.816 224.806 603.408 223.57 602.592 222.706C601.8 221.842 600.816 221.41 599.64 221.41C598.44 221.41 597.444 221.842 596.652 222.706C595.86 223.546 595.464 224.782 595.464 226.414C595.464 228.022 595.848 229.258 596.616 230.122C597.408 230.986 598.392 231.418 599.568 231.418Z" fill="black"/>
<path d="M749.051 341.132H742.751L746.783 331.484H750.923L749.051 341.132ZM757.223 341.132H750.959L754.991 331.484H759.095L757.223 341.132Z" fill="black"/>
<path d="M692.195 203.869L696.551 189.541H703.103L695.975 209.629H688.379L681.251 189.541H687.839L692.195 203.869ZM708.791 187.453C707.711 187.453 706.823 187.141 706.127 186.517C705.455 185.869 705.119 185.077 705.119 184.141C705.119 183.181 705.455 182.389 706.127 181.765C706.823 181.117 707.711 180.793 708.791 180.793C709.847 180.793 710.711 181.117 711.383 181.765C712.079 182.389 712.427 183.181 712.427 184.141C712.427 185.077 712.079 185.869 711.383 186.517C710.711 187.141 709.847 187.453 708.791 187.453ZM711.851 189.541V209.629H705.695V189.541H711.851ZM724.484 209.917C722.732 209.917 721.172 209.617 719.804 209.017C718.436 208.417 717.356 207.601 716.564 206.569C715.772 205.513 715.328 204.337 715.232 203.041H721.316C721.388 203.737 721.712 204.301 722.288 204.733C722.864 205.165 723.572 205.381 724.412 205.381C725.18 205.381 725.768 205.237 726.176 204.949C726.608 204.637 726.824 204.241 726.824 203.761C726.824 203.185 726.524 202.765 725.924 202.501C725.324 202.213 724.352 201.901 723.008 201.565C721.568 201.229 720.368 200.881 719.408 200.521C718.448 200.137 717.62 199.549 716.924 198.757C716.228 197.941 715.88 196.849 715.88 195.481C715.88 194.329 716.192 193.285 716.816 192.349C717.464 191.389 718.4 190.633 719.624 190.081C720.872 189.529 722.348 189.253 724.052 189.253C726.572 189.253 728.552 189.877 729.992 191.125C731.456 192.373 732.296 194.029 732.512 196.093H726.824C726.728 195.397 726.416 194.845 725.888 194.437C725.384 194.029 724.712 193.825 723.872 193.825C723.152 193.825 722.6 193.969 722.216 194.257C721.832 194.521 721.64 194.893 721.64 195.373C721.64 195.949 721.94 196.381 722.54 196.669C723.164 196.957 724.124 197.245 725.42 197.533C726.908 197.917 728.12 198.301 729.056 198.685C729.992 199.045 730.808 199.645 731.504 200.485C732.224 201.301 732.596 202.405 732.62 203.797C732.62 204.973 732.284 206.029 731.612 206.965C730.964 207.877 730.016 208.597 728.768 209.125C727.544 209.653 726.116 209.917 724.484 209.917ZM756.222 189.541V209.629H750.066V206.893C749.442 207.781 748.59 208.501 747.51 209.053C746.454 209.581 745.278 209.845 743.982 209.845C742.446 209.845 741.09 209.509 739.914 208.837C738.738 208.141 737.826 207.145 737.178 205.849C736.53 204.553 736.206 203.029 736.206 201.277V189.541H742.326V200.449C742.326 201.793 742.674 202.837 743.37 203.581C744.066 204.325 745.002 204.697 746.178 204.697C747.378 204.697 748.326 204.325 749.022 203.581C749.718 202.837 750.066 201.793 750.066 200.449V189.541H756.222ZM759.42 199.549C759.42 197.485 759.804 195.673 760.572 194.113C761.364 192.553 762.432 191.353 763.776 190.513C765.12 189.673 766.62 189.253 768.276 189.253C769.692 189.253 770.928 189.541 771.984 190.117C773.064 190.693 773.892 191.449 774.468 192.385V189.541H780.624V209.629H774.468V206.785C773.868 207.721 773.028 208.477 771.948 209.053C770.892 209.629 769.656 209.917 768.24 209.917C766.608 209.917 765.12 209.497 763.776 208.657C762.432 207.793 761.364 206.581 760.572 205.021C759.804 203.437 759.42 201.613 759.42 199.549ZM774.468 199.585C774.468 198.049 774.036 196.837 773.172 195.949C772.332 195.061 771.3 194.617 770.076 194.617C768.852 194.617 767.808 195.061 766.944 195.949C766.104 196.813 765.684 198.013 765.684 199.549C765.684 201.085 766.104 202.309 766.944 203.221C767.808 204.109 768.852 204.553 770.076 204.553C771.3 204.553 772.332 204.109 773.172 203.221C774.036 202.333 774.468 201.121 774.468 199.585ZM791.233 182.989V209.629H785.077V182.989H791.233ZM803.867 209.917C802.115 209.917 800.555 209.617 799.187 209.017C797.819 208.417 796.739 207.601 795.947 206.569C795.155 205.513 794.711 204.337 794.615 203.041H800.699C800.771 203.737 801.095 204.301 801.671 204.733C802.247 205.165 802.955 205.381 803.795 205.381C804.563 205.381 805.151 205.237 805.559 204.949C805.991 204.637 806.207 204.241 806.207 203.761C806.207 203.185 805.907 202.765 805.307 202.501C804.707 202.213 803.735 201.901 802.391 201.565C800.951 201.229 799.751 200.881 798.791 200.521C797.831 200.137 797.003 199.549 796.307 198.757C795.611 197.941 795.263 196.849 795.263 195.481C795.263 194.329 795.575 193.285 796.199 192.349C796.847 191.389 797.783 190.633 799.007 190.081C800.255 189.529 801.731 189.253 803.435 189.253C805.955 189.253 807.935 189.877 809.375 191.125C810.839 192.373 811.679 194.029 811.895 196.093H806.207C806.111 195.397 805.799 194.845 805.271 194.437C804.767 194.029 804.095 193.825 803.255 193.825C802.535 193.825 801.983 193.969 801.599 194.257C801.215 194.521 801.023 194.893 801.023 195.373C801.023 195.949 801.323 196.381 801.923 196.669C802.547 196.957 803.507 197.245 804.803 197.533C806.291 197.917 807.503 198.301 808.439 198.685C809.375 199.045 810.191 199.645 810.887 200.485C811.607 201.301 811.979 202.405 812.003 203.797C812.003 204.973 811.667 206.029 810.995 206.965C810.347 207.877 809.399 208.597 808.151 209.125C806.927 209.653 805.499 209.917 803.867 209.917Z" fill="black"/>
<path d="M662.107 254.459V269.579C662.107 271.091 662.479 272.255 663.223 273.071C663.967 273.887 665.059 274.295 666.499 274.295C667.939 274.295 669.043 273.887 669.811 273.071C670.579 272.255 670.963 271.091 670.963 269.579V254.459H677.119V269.543C677.119 271.799 676.639 273.707 675.679 275.267C674.719 276.827 673.423 278.003 671.791 278.795C670.183 279.587 668.383 279.983 666.391 279.983C664.399 279.983 662.611 279.599 661.027 278.831C659.467 278.039 658.231 276.863 657.319 275.303C656.407 273.719 655.951 271.799 655.951 269.543V254.459H662.107ZM689.613 280.019C687.861 280.019 686.301 279.719 684.933 279.119C683.565 278.519 682.485 277.703 681.693 276.671C680.901 275.615 680.457 274.439 680.361 273.143H686.445C686.517 273.839 686.841 274.403 687.417 274.835C687.993 275.267 688.701 275.483 689.541 275.483C690.309 275.483 690.897 275.339 691.305 275.051C691.737 274.739 691.953 274.343 691.953 273.863C691.953 273.287 691.653 272.867 691.053 272.603C690.453 272.315 689.481 272.003 688.137 271.667C686.697 271.331 685.497 270.983 684.537 270.623C683.577 270.239 682.749 269.651 682.053 268.859C681.357 268.043 681.009 266.951 681.009 265.583C681.009 264.431 681.321 263.387 681.945 262.451C682.593 261.491 683.529 260.735 684.753 260.183C686.001 259.631 687.477 259.355 689.181 259.355C691.701 259.355 693.681 259.979 695.121 261.227C696.585 262.475 697.425 264.131 697.641 266.195H691.953C691.857 265.499 691.545 264.947 691.017 264.539C690.513 264.131 689.841 263.927 689.001 263.927C688.281 263.927 687.729 264.071 687.345 264.359C686.961 264.623 686.769 264.995 686.769 265.475C686.769 266.051 687.069 266.483 687.669 266.771C688.293 267.059 689.253 267.347 690.549 267.635C692.037 268.019 693.249 268.403 694.185 268.787C695.121 269.147 695.937 269.747 696.633 270.587C697.353 271.403 697.725 272.507 697.749 273.899C697.749 275.075 697.413 276.131 696.741 277.067C696.093 277.979 695.145 278.699 693.897 279.227C692.673 279.755 691.245 280.019 689.613 280.019ZM720.452 269.363C720.452 269.939 720.416 270.539 720.344 271.163H706.412C706.508 272.411 706.904 273.371 707.6 274.043C708.32 274.691 709.196 275.015 710.228 275.015C711.764 275.015 712.832 274.367 713.432 273.071H719.984C719.648 274.391 719.036 275.579 718.148 276.635C717.284 277.691 716.192 278.519 714.872 279.119C713.552 279.719 712.076 280.019 710.444 280.019C708.476 280.019 706.724 279.599 705.188 278.759C703.652 277.919 702.452 276.719 701.588 275.159C700.724 273.599 700.292 271.775 700.292 269.687C700.292 267.599 700.712 265.775 701.552 264.215C702.416 262.655 703.616 261.455 705.152 260.615C706.688 259.775 708.452 259.355 710.444 259.355C712.388 259.355 714.116 259.763 715.628 260.579C717.14 261.395 718.316 262.559 719.156 264.071C720.02 265.583 720.452 267.347 720.452 269.363ZM714.152 267.743C714.152 266.687 713.792 265.847 713.072 265.223C712.352 264.599 711.452 264.287 710.372 264.287C709.34 264.287 708.464 264.587 707.744 265.187C707.048 265.787 706.616 266.639 706.448 267.743H714.152ZM729.855 262.991C730.575 261.887 731.475 261.023 732.555 260.399C733.635 259.751 734.835 259.427 736.155 259.427V265.943H734.463C732.927 265.943 731.775 266.279 731.007 266.951C730.239 267.599 729.855 268.751 729.855 270.407V279.731H723.699V259.643H729.855V262.991ZM745.503 269.687C745.503 267.599 745.923 265.775 746.763 264.215C747.627 262.655 748.815 261.455 750.327 260.615C751.863 259.775 753.615 259.355 755.583 259.355C758.103 259.355 760.203 260.015 761.883 261.335C763.587 262.655 764.703 264.515 765.231 266.915H758.679C758.127 265.379 757.059 264.611 755.475 264.611C754.347 264.611 753.447 265.055 752.775 265.943C752.103 266.807 751.767 268.055 751.767 269.687C751.767 271.319 752.103 272.579 752.775 273.467C753.447 274.331 754.347 274.763 755.475 274.763C757.059 274.763 758.127 273.995 758.679 272.459H765.231C764.703 274.811 763.587 276.659 761.883 278.003C760.179 279.347 758.079 280.019 755.583 280.019C753.615 280.019 751.863 279.599 750.327 278.759C748.815 277.919 747.627 276.719 746.763 275.159C745.923 273.599 745.503 271.775 745.503 269.687ZM787.46 269.363C787.46 269.939 787.424 270.539 787.352 271.163H773.42C773.516 272.411 773.912 273.371 774.608 274.043C775.328 274.691 776.204 275.015 777.236 275.015C778.772 275.015 779.84 274.367 780.44 273.071H786.992C786.656 274.391 786.044 275.579 785.156 276.635C784.292 277.691 783.2 278.519 781.88 279.119C780.56 279.719 779.084 280.019 777.452 280.019C775.484 280.019 773.732 279.599 772.196 278.759C770.66 277.919 769.46 276.719 768.596 275.159C767.732 273.599 767.3 271.775 767.3 269.687C767.3 267.599 767.72 265.775 768.56 264.215C769.424 262.655 770.624 261.455 772.16 260.615C773.696 259.775 775.46 259.355 777.452 259.355C779.396 259.355 781.124 259.763 782.636 260.579C784.148 261.395 785.324 262.559 786.164 264.071C787.028 265.583 787.46 267.347 787.46 269.363ZM781.16 267.743C781.16 266.687 780.8 265.847 780.08 265.223C779.36 264.599 778.46 264.287 777.38 264.287C776.348 264.287 775.472 264.587 774.752 265.187C774.056 265.787 773.624 266.639 773.456 267.743H781.16ZM802.947 259.427C805.299 259.427 807.171 260.195 808.563 261.731C809.979 263.243 810.687 265.331 810.687 267.995V279.731H804.567V268.823C804.567 267.479 804.219 266.435 803.523 265.691C802.827 264.947 801.891 264.575 800.715 264.575C799.539 264.575 798.603 264.947 797.907 265.691C797.211 266.435 796.863 267.479 796.863 268.823V279.731H790.707V259.643H796.863V262.307C797.487 261.419 798.327 260.723 799.383 260.219C800.439 259.691 801.627 259.427 802.947 259.427ZM826.161 274.511V279.731H823.029C820.797 279.731 819.057 279.191 817.809 278.111C816.561 277.007 815.937 275.219 815.937 272.747V264.755H813.489V259.643H815.937V254.747H822.093V259.643H826.125V264.755H822.093V272.819C822.093 273.419 822.237 273.851 822.525 274.115C822.813 274.379 823.293 274.511 823.965 274.511H826.161ZM835.746 262.991C836.466 261.887 837.366 261.023 838.446 260.399C839.526 259.751 840.726 259.427 842.046 259.427V265.943H840.354C838.818 265.943 837.666 266.279 836.898 266.951C836.13 267.599 835.746 268.751 835.746 270.407V279.731H829.59V259.643H835.746V262.991ZM848.084 257.555C847.004 257.555 846.116 257.243 845.42 256.619C844.748 255.971 844.412 255.179 844.412 254.243C844.412 253.283 844.748 252.491 845.42 251.867C846.116 251.219 847.004 250.895 848.084 250.895C849.14 250.895 850.004 251.219 850.676 251.867C851.372 252.491 851.72 253.283 851.72 254.243C851.72 255.179 851.372 255.971 850.676 256.619C850.004 257.243 849.14 257.555 848.084 257.555ZM851.144 259.643V279.731H844.988V259.643H851.144ZM854.382 269.687C854.382 267.599 854.802 265.775 855.642 264.215C856.506 262.655 857.694 261.455 859.206 260.615C860.742 259.775 862.494 259.355 864.462 259.355C866.982 259.355 869.082 260.015 870.762 261.335C872.466 262.655 873.582 264.515 874.11 266.915H867.558C867.006 265.379 865.938 264.611 864.354 264.611C863.226 264.611 862.326 265.055 861.654 265.943C860.982 266.807 860.646 268.055 860.646 269.687C860.646 271.319 860.982 272.579 861.654 273.467C862.326 274.331 863.226 274.763 864.354 274.763C865.938 274.763 867.006 273.995 867.558 272.459H874.11C873.582 274.811 872.466 276.659 870.762 278.003C869.058 279.347 866.958 280.019 864.462 280.019C862.494 280.019 860.742 279.599 859.206 278.759C857.694 277.919 856.506 276.719 855.642 275.159C854.802 273.599 854.382 271.775 854.382 269.687Z" fill="url(#paint1_linear_26_5)"/>
<path d="M589.008 322.92C589.008 320.856 589.392 319.044 590.16 317.484C590.952 315.924 592.02 314.724 593.364 313.884C594.708 313.044 596.208 312.624 597.864 312.624C599.184 312.624 600.384 312.9 601.464 313.452C602.568 314.004 603.432 314.748 604.056 315.684V306.36H610.212V333H604.056V330.12C603.48 331.08 602.652 331.848 601.572 332.424C600.516 333 599.28 333.288 597.864 333.288C596.208 333.288 594.708 332.868 593.364 332.028C592.02 331.164 590.952 329.952 590.16 328.392C589.392 326.808 589.008 324.984 589.008 322.92ZM604.056 322.956C604.056 321.42 603.624 320.208 602.76 319.32C601.92 318.432 600.888 317.988 599.664 317.988C598.44 317.988 597.396 318.432 596.532 319.32C595.692 320.184 595.272 321.384 595.272 322.92C595.272 324.456 595.692 325.68 596.532 326.592C597.396 327.48 598.44 327.924 599.664 327.924C600.888 327.924 601.92 327.48 602.76 326.592C603.624 325.704 604.056 324.492 604.056 322.956ZM633.602 322.632C633.602 323.208 633.566 323.808 633.494 324.432H619.562C619.658 325.68 620.054 326.64 620.75 327.312C621.47 327.96 622.346 328.284 623.378 328.284C624.914 328.284 625.982 327.636 626.582 326.34H633.134C632.798 327.66 632.186 328.848 631.298 329.904C630.434 330.96 629.342 331.788 628.022 332.388C626.702 332.988 625.226 333.288 623.594 333.288C621.626 333.288 619.874 332.868 618.338 332.028C616.802 331.188 615.602 329.988 614.738 328.428C613.874 326.868 613.442 325.044 613.442 322.956C613.442 320.868 613.862 319.044 614.702 317.484C615.566 315.924 616.766 314.724 618.302 313.884C619.838 313.044 621.602 312.624 623.594 312.624C625.538 312.624 627.266 313.032 628.778 313.848C630.29 314.664 631.466 315.828 632.306 317.34C633.17 318.852 633.602 320.616 633.602 322.632ZM627.302 321.012C627.302 319.956 626.942 319.116 626.222 318.492C625.502 317.868 624.602 317.556 623.522 317.556C622.49 317.556 621.614 317.856 620.894 318.456C620.198 319.056 619.766 319.908 619.598 321.012H627.302ZM645.021 333.288C643.269 333.288 641.709 332.988 640.341 332.388C638.973 331.788 637.893 330.972 637.101 329.94C636.309 328.884 635.865 327.708 635.769 326.412H641.853C641.925 327.108 642.249 327.672 642.825 328.104C643.401 328.536 644.109 328.752 644.949 328.752C645.717 328.752 646.305 328.608 646.713 328.32C647.145 328.008 647.361 327.612 647.361 327.132C647.361 326.556 647.061 326.136 646.461 325.872C645.861 325.584 644.889 325.272 643.545 324.936C642.105 324.6 640.905 324.252 639.945 323.892C638.985 323.508 638.157 322.92 637.461 322.128C636.765 321.312 636.417 320.22 636.417 318.852C636.417 317.7 636.729 316.656 637.353 315.72C638.001 314.76 638.937 314.004 640.161 313.452C641.409 312.9 642.885 312.624 644.589 312.624C647.109 312.624 649.089 313.248 650.529 314.496C651.993 315.744 652.833 317.4 653.049 319.464H647.361C647.265 318.768 646.953 318.216 646.425 317.808C645.921 317.4 645.249 317.196 644.409 317.196C643.689 317.196 643.137 317.34 642.753 317.628C642.369 317.892 642.177 318.264 642.177 318.744C642.177 319.32 642.477 319.752 643.077 320.04C643.701 320.328 644.661 320.616 645.957 320.904C647.445 321.288 648.657 321.672 649.593 322.056C650.529 322.416 651.345 323.016 652.041 323.856C652.761 324.672 653.133 325.776 653.157 327.168C653.157 328.344 652.821 329.4 652.149 330.336C651.501 331.248 650.553 331.968 649.305 332.496C648.081 333.024 646.653 333.288 645.021 333.288ZM660.019 310.824C658.939 310.824 658.051 310.512 657.355 309.888C656.683 309.24 656.347 308.448 656.347 307.512C656.347 306.552 656.683 305.76 657.355 305.136C658.051 304.488 658.939 304.164 660.019 304.164C661.075 304.164 661.939 304.488 662.611 305.136C663.307 305.76 663.655 306.552 663.655 307.512C663.655 308.448 663.307 309.24 662.611 309.888C661.939 310.512 661.075 310.824 660.019 310.824ZM663.079 312.912V333H656.923V312.912H663.079ZM675.173 312.624C676.589 312.624 677.825 312.912 678.881 313.488C679.961 314.064 680.789 314.82 681.365 315.756V312.912H687.521V332.964C687.521 334.812 687.149 336.48 686.405 337.968C685.685 339.48 684.569 340.68 683.057 341.568C681.569 342.456 679.709 342.9 677.477 342.9C674.501 342.9 672.089 342.192 670.241 340.776C668.393 339.384 667.337 337.488 667.073 335.088H673.157C673.349 335.856 673.805 336.456 674.525 336.888C675.245 337.344 676.133 337.572 677.189 337.572C678.461 337.572 679.469 337.2 680.213 336.456C680.981 335.736 681.365 334.572 681.365 332.964V330.12C680.765 331.056 679.937 331.824 678.881 332.424C677.825 333 676.589 333.288 675.173 333.288C673.517 333.288 672.017 332.868 670.673 332.028C669.329 331.164 668.261 329.952 667.469 328.392C666.701 326.808 666.317 324.984 666.317 322.92C666.317 320.856 666.701 319.044 667.469 317.484C668.261 315.924 669.329 314.724 670.673 313.884C672.017 313.044 673.517 312.624 675.173 312.624ZM681.365 322.956C681.365 321.42 680.933 320.208 680.069 319.32C679.229 318.432 678.197 317.988 676.973 317.988C675.749 317.988 674.705 318.432 673.841 319.32C673.001 320.184 672.581 321.384 672.581 322.92C672.581 324.456 673.001 325.68 673.841 326.592C674.705 327.48 675.749 327.924 676.973 327.924C678.197 327.924 679.229 327.48 680.069 326.592C680.933 325.704 681.365 324.492 681.365 322.956ZM704.214 312.696C706.566 312.696 708.438 313.464 709.83 315C711.246 316.512 711.954 318.6 711.954 321.264V333H705.834V322.092C705.834 320.748 705.486 319.704 704.79 318.96C704.094 318.216 703.158 317.844 701.982 317.844C700.806 317.844 699.87 318.216 699.174 318.96C698.478 319.704 698.13 320.748 698.13 322.092V333H691.974V312.912H698.13V315.576C698.754 314.688 699.594 313.992 700.65 313.488C701.706 312.96 702.894 312.696 704.214 312.696Z" fill="white"/>
<line x1="586.032" y1="242.327" x2="586.032" y2="265.695" stroke="black" stroke-width="2"/>
<path d="M647.237 266.402C647.628 266.011 647.628 265.378 647.237 264.987L640.873 258.623C640.483 258.233 639.85 258.233 639.459 258.623C639.069 259.014 639.069 259.647 639.459 260.038L645.116 265.695L639.459 271.351C639.069 271.742 639.069 272.375 639.459 272.766C639.85 273.156 640.483 273.156 640.873 272.766L647.237 266.402ZM585.032 266.695H646.53V264.695H585.032V266.695Z" fill="black"/>
<path d="M742.09 152.162C742.481 151.771 742.481 151.138 742.09 150.747L735.726 144.383C735.336 143.993 734.703 143.993 734.312 144.383C733.921 144.774 733.921 145.407 734.312 145.798L739.969 151.455L734.312 157.111C733.921 157.502 733.921 158.135 734.312 158.526C734.703 158.916 735.336 158.916 735.726 158.526L742.09 152.162ZM679.885 152.455H741.383V150.455H679.885V152.455Z" fill="black"/>
<path d="M965.486 151.022H995.714" stroke="black"/>
<path d="M990.193 196.958L995.193 199.345V193.571L990.193 195.958V196.958ZM829.982 196.958H990.693V195.958H829.982V196.958Z" fill="black"/>
<path d="M994.671 196.458V150.589" stroke="black"/>
<path d="M824.77 196.458L832.588 192.711V200.206L824.77 196.458Z" fill="black"/>
<rect x="536.542" y="176.187" width="36.5242" height="29.2909" stroke="#00415C"/>
<path d="M567.346 183.619C567.412 183.123 566.984 182.656 566.39 182.577L556.709 181.291C556.115 181.212 555.58 181.55 555.514 182.047C555.448 182.543 555.876 183.01 556.47 183.089L565.075 184.232L564.119 191.425C564.053 191.921 564.481 192.388 565.075 192.467C565.669 192.546 566.204 192.207 566.27 191.711L567.346 183.619ZM545.057 198.06L566.946 184.213L565.594 182.74L543.705 196.587L545.057 198.06Z" fill="#00415C"/>
<defs>
<filter id="filter0_d_26_5" x="553" y="288" width="201" height="76" filterUnits="userSpaceOnUse" color-interpolation-filters="sRGB">
<feFlood flood-opacity="0" result="BackgroundImageFix"/>
<feColorMatrix in="SourceAlpha" type="matrix" values="0 0 0 0 0 0 0 0 0 0 0 0 0 0 0 0 0 0 127 0" result="hardAlpha"/>
<feOffset dy="4"/>
<feGaussianBlur stdDeviation="5"/>
<feComposite in2="hardAlpha" operator="out"/>
<feColorMatrix type="matrix" values="0 0 0 0 0 0 0 0 0 0.0355 0 0 0 0 0.8875 0 0 0 1 0"/>
<feBlend mode="normal" in2="BackgroundImageFix" result="effect1_dropShadow_26_5"/>
<feBlend mode="normal" in="SourceGraphic" in2="effect1_dropShadow_26_5" result="shape"/>
</filter>
<linearGradient id="paint0_linear_26_5" x1="580.381" y1="301.925" x2="745.616" y2="401.278" gradientUnits="userSpaceOnUse">
<stop stop-color="#005BE2"/>
<stop offset="1" stop-color="#5600AB"/>
</linearGradient>
<linearGradient id="paint1_linear_26_5" x1="769.526" y1="239.731" x2="769.526" y2="290.793" gradientUnits="userSpaceOnUse">
<stop stop-color="#005BE2"/>
<stop offset="1" stop-color="#5600AB"/>
</linearGradient>
</defs>
</svg>
