<svg width="35" height="35" viewBox="0 0 35 35" fill="none" xmlns="http://www.w3.org/2000/svg">
<g clip-path="url(#clip0_225_139)">
<path d="M14.8535 3.0664C6.94466 4.46093 1.67154 11.9901 3.06629 19.9002C4.46083 27.809 11.99 33.0821 19.9001 31.6874C22.6788 31.1974 25.2578 29.9014 27.3044 27.9886C27.9176 27.4155 27.9012 26.4383 27.2648 25.891L26.5511 25.2772C26.0131 24.8145 25.2103 24.8194 24.6886 25.3004C23.1793 26.6919 21.2867 27.635 19.2489 27.9943C13.3944 29.0266 7.79163 25.1035 6.75932 19.249C5.72702 13.3945 9.65015 7.79173 15.5046 6.75943C21.283 5.74054 26.7084 8.2121 27.75 14.1199C28.1447 16.3579 27.3443 18.9359 25.245 19.5411C24.2393 19.6914 24.1384 18.9713 24.1619 17.9457L24.2818 10.7188C24.2965 9.83513 23.5019 9.15713 22.6316 9.3106L20.036 9.76827C19.8444 9.80206 19.6719 9.90521 19.5514 10.0581C19.431 10.2109 19.371 10.4027 19.383 10.597L19.3833 10.6024C18.3531 9.71897 16.8278 9.75743 15.7013 9.95607C11.3977 10.7149 8.38112 14.9496 9.28897 20.0982C9.95341 23.8665 12.4888 25.833 15.9057 25.2306C17.4628 24.956 19.057 23.7445 19.8429 22.2556C20.7394 24.1266 22.5334 23.8102 24.2701 23.504C30.5545 22.3959 32.2143 17.8425 31.4431 13.4687C30.0558 5.60096 22.8179 1.66205 14.8535 3.0664ZM16.6999 20.8537C15.4161 21.0801 14.4596 20.3192 14.2037 18.8681C13.7459 16.2718 15.2398 14.3582 16.8469 14.0748C18.1332 13.848 19.0563 14.592 19.316 16.0651C19.7745 18.6653 18.1013 20.6066 16.6999 20.8537Z" fill="#AAAAAA" fill-opacity="0.74"/>
</g>
<defs>
<clipPath id="clip0_225_139">
<rect width="30" height="30" fill="white" transform="translate(0 5.20947) rotate(-10)"/>
</clipPath>
</defs>
</svg>
