<svg width="35" height="35" viewBox="0 0 35 35" fill="none" xmlns="http://www.w3.org/2000/svg">
<g clip-path="url(#clip0_225_141)">
<path d="M15.0977 4.45131C6.93839 5.89001 1.27283 12.4282 2.4419 19.0584C2.94656 21.9205 4.64335 24.3225 7.06084 26.0203C6.85235 29.0557 4.89718 32.0719 4.87342 32.1059C4.76987 32.261 4.76984 32.4633 4.87538 32.6231C4.98092 32.783 5.1608 32.8584 5.34545 32.8258C9.1712 32.1513 11.7155 29.8106 12.9356 28.4293C14.9477 28.8064 17.1145 28.8467 19.3304 28.456C27.4896 27.0173 33.1552 20.4791 31.9861 13.8489C30.8171 7.21879 23.257 3.01261 15.0977 4.45131ZM10.1535 19.6025C9.13219 19.7826 8.16153 19.103 7.98144 18.0816C7.80135 17.0603 8.48101 16.0896 9.50237 15.9095C10.5237 15.7294 11.4944 16.4091 11.6745 17.4304C11.8546 18.4518 11.1749 19.4224 10.1535 19.6025ZM17.5396 18.3002C16.5183 18.4803 15.5476 17.8006 15.3675 16.7792C15.1874 15.7579 15.8671 14.7872 16.8884 14.6071C17.9098 14.427 18.8804 15.1067 19.0605 16.1281C19.2406 17.1494 18.561 18.1201 17.5396 18.3002ZM24.9257 16.9978C23.9043 17.1779 22.9337 16.4982 22.7536 15.4769C22.5735 14.4555 23.2531 13.4849 24.2745 13.3048C25.2958 13.1247 26.2665 13.8043 26.4466 14.8257C26.6267 15.8471 25.947 16.8177 24.9257 16.9978Z" fill="#AAAAAA" fill-opacity="0.74"/>
</g>
<defs>
<clipPath id="clip0_225_141">
<rect width="30" height="30" fill="white" transform="translate(0 5.20947) rotate(-10)"/>
</clipPath>
</defs>
</svg>
