<svg width="35" height="35" viewBox="0 0 35 35" fill="none" xmlns="http://www.w3.org/2000/svg">
<g clip-path="url(#clip0_225_149)">
<path d="M14.8272 3.07105C11.0045 3.75218 7.79819 5.87126 5.66682 8.77287L3.24262 7.07542C2.2163 6.35679 0.833552 7.2377 1.05111 8.47152L2.41512 16.2072C2.54998 16.9721 3.27933 17.4828 4.0442 17.3479L11.7799 15.9839C13.0137 15.7663 13.3686 14.1657 12.3423 13.447L9.50838 11.4627C10.9953 9.4811 13.1369 8.15103 15.5815 7.69821C20.9051 6.71204 26.1602 10.2344 27.0854 15.7512C27.9631 20.9846 24.4997 26.1166 19.0861 27.0711C16.713 27.4896 14.3207 27.0381 12.2796 25.7988C11.9635 25.607 11.5528 25.6944 11.3407 25.9973L9.45561 28.6894C9.22405 29.0201 9.31878 29.476 9.6608 29.6905C12.6025 31.5351 16.2114 32.3378 19.9001 31.6874C27.8035 30.2938 33.0808 22.7571 31.6873 14.8537C30.2954 6.95932 22.7191 1.66492 14.8272 3.07105Z" fill="#AAAAAA" fill-opacity="0.75"/>
</g>
<defs>
<clipPath id="clip0_225_149">
<rect width="30" height="30" fill="white" transform="translate(0 5.20947) rotate(-10)"/>
</clipPath>
</defs>
</svg>
