<svg width="33" height="33" viewBox="0 0 33 33" fill="none" xmlns="http://www.w3.org/2000/svg">
<g clip-path="url(#clip0_225_145)">
<path d="M31.0778 11.0257L28.1352 13.4616C27.8352 13.71 27.3918 13.6682 27.1435 13.3682L21.2783 6.28295C21.0299 5.98294 21.0717 5.53959 21.3717 5.29125L24.3143 2.85532C25.5079 1.86721 27.2813 2.03428 28.2753 3.22847L31.4509 7.06471C32.4449 8.25889 32.2778 10.0323 31.0778 11.0257ZM18.844 7.38371L2.08196 21.2595L0.177551 28.2307C-0.0817481 29.1715 0.674413 30.0785 1.6465 30.0052L8.85132 29.4304L25.6133 15.5546C25.9133 15.3063 25.9551 14.8629 25.7067 14.5629L19.8415 7.47768C19.5873 7.17713 19.144 7.13536 18.844 7.38371ZM8.185 20.5102C7.89438 20.1592 7.94274 19.6458 8.29381 19.3552L18.1238 11.2178C18.4748 10.9272 18.9882 10.9756 19.2788 11.3266C19.5694 11.6777 19.5211 12.1911 19.17 12.4817L9.34004 20.619C8.98897 20.9097 8.47562 20.8613 8.185 20.5102ZM5.61692 25.2179L8.41702 25.4816L8.21753 27.5992L4.3928 27.9039L2.74947 25.9188L3.76312 22.2183L5.8807 22.4178L5.61692 25.2179Z" fill="#AAAAAA" fill-opacity="0.75"/>
</g>
<defs>
<clipPath id="clip0_225_145">
<rect width="30" height="30" fill="white" transform="translate(2.81372) rotate(5.38166)"/>
</clipPath>
</defs>
</svg>
