<svg width="35" height="35" viewBox="0 0 35 35" fill="none" xmlns="http://www.w3.org/2000/svg">
<g clip-path="url(#clip0_225_143)">
<path d="M15.3504 2.50279C10.7446 3.31493 8.09413 5.72803 6.34542 9.50646C6.0282 10.1919 6.30678 11.0058 6.97869 11.3507L9.80072 12.7992C10.4793 13.1475 11.3122 12.8912 11.6773 12.2215C12.8035 10.1559 13.6918 8.92423 15.9496 8.52612C17.7248 8.21311 20.122 8.96841 20.4255 10.6898C20.6549 11.9912 19.6985 12.8489 18.119 14.1407C16.277 15.6471 13.8236 17.5502 14.4527 21.118L14.5523 21.6828C14.6871 22.4476 15.4165 22.9583 16.1814 22.8235L20.3632 22.0861C21.128 21.9512 21.6387 21.2219 21.5039 20.457L21.4451 20.1239C21.0091 17.6507 28.2193 16.2732 27.0392 9.58059C26.1506 4.54052 20.2484 1.63915 15.3504 2.50279ZM18.572 24.1547C16.368 24.5433 14.891 26.6526 15.2797 28.8567C15.6683 31.0607 17.7776 32.5376 19.9816 32.149C22.1857 31.7604 23.6627 29.651 23.274 27.447C22.8854 25.2429 20.7761 23.766 18.572 24.1547Z" fill="#AAAAAA" fill-opacity="0.75"/>
</g>
<defs>
<clipPath id="clip0_225_143">
<rect width="30" height="30" fill="white" transform="translate(0 5.20947) rotate(-10)"/>
</clipPath>
</defs>
</svg>
