<svg width="1224" height="1224" viewBox="0 0 1224 1224" fill="none" xmlns="http://www.w3.org/2000/svg">
<g clip-path="url(#clip0_3_3)">
<path d="M1224 0H0V1224H1224V0Z" fill="white"/>
<path d="M1053.78 985.142L1052.28 984.222C1137.35 845.87 1181.69 720.867 1184.05 612.686C1186.49 500.808 1143.11 432.399 1106.29 394.712C1070.93 358.517 1024.63 333.339 975.929 323.817C930.271 314.891 885.587 320.562 853.335 339.375L852.45 337.858C885.066 318.833 930.199 313.085 976.265 322.094C1025.31 331.683 1071.94 357.038 1107.55 393.485C1144.6 431.412 1188.26 500.235 1185.8 612.724C1183.44 721.223 1139.02 846.521 1053.78 985.142Z" fill="#E5E5FF"/>
<path opacity="0.4" d="M1121.97 494.872C1082.24 408.805 1005.07 341.532 909.071 329.839C832.482 320.509 755.458 319.261 678.536 314.567C597.352 309.613 517.867 294.55 437.642 281.349C386.145 272.876 341.03 285.391 291.098 303.505C222.892 328.247 156.983 408.131 127.241 472.043C55.5855 626.022 95.1633 819.704 158.307 969.752C161.4 977.103 182.726 1035.59 189.119 1035.59C189.126 1035.59 1024.28 1035.59 1024.28 1035.59C1074.66 961.703 1115.96 880.436 1138.88 796.525C1166.12 696.816 1165.83 589.895 1121.97 494.872Z" fill="#E5E5FF"/>
<path d="M105.922 804.122C73.1304 701.868 58.6923 612.951 63.0083 539.841C66.5974 479.034 83.1521 428.53 112.211 389.732C178.792 300.84 289.999 302.597 291.12 302.627L291.076 304.383C289.995 304.349 179.627 302.635 113.603 390.804C84.7596 429.322 68.3264 479.506 64.7604 539.962C60.4605 612.851 74.8713 701.547 107.594 803.587L105.922 804.122Z" fill="#E5E5FF"/>
<path d="M908.507 816.075H309.219C297.271 816.075 287.586 806.39 287.586 794.442V211.51C287.586 199.562 297.271 189.877 309.219 189.877H908.507C920.455 189.877 930.14 199.562 930.14 211.51V794.442C930.14 806.39 920.455 816.075 908.507 816.075Z" fill="#E5E5FF"/>
<path d="M908.507 816.953H309.218C296.807 816.953 286.708 806.854 286.708 794.442V211.51C286.708 199.098 296.807 189 309.218 189H908.507C920.919 189 931.018 199.098 931.018 211.51V794.442C931.018 806.855 920.919 816.953 908.507 816.953ZM309.218 190.755C297.774 190.755 288.464 200.065 288.464 211.509V794.442C288.464 805.885 297.774 815.197 309.218 815.197H908.507C919.95 815.197 929.262 805.886 929.262 794.442V211.51C929.262 200.066 919.951 190.756 908.507 190.756H309.218V190.755Z" fill="#CBCBFF"/>
<path d="M856.404 262.833H719.467V272.826H856.404V262.833Z" fill="#9192FF"/>
<path d="M894.637 305.846H676.454V315.838H894.637V305.846Z" fill="#B7B7FF"/>
<path d="M872.965 335.399H676.454V345.391H872.965V335.399Z" fill="#B7B7FF"/>
<path d="M850.396 364.952H676.454V374.944H850.396V364.952Z" fill="#CBCBFF"/>
<path d="M894.637 394.504H676.454V404.496H894.637V394.504Z" fill="#CBCBFF"/>
<path d="M837.508 424.057H676.454V434.05H837.508V424.057Z" fill="#CBCBFF"/>
<path d="M543.306 586.159H333.905V596.151H543.306V586.159Z" fill="#B7B7FF"/>
<path d="M875.941 613.371H334.505V623.363H875.941V613.371Z" fill="#CBCBFF"/>
<path d="M586.402 262.833H334.233V529.705H586.402V262.833Z" fill="white"/>
<path d="M374.568 439.124H357.037V500.499H374.568V439.124Z" fill="#B7B7FF"/>
<path d="M406.073 447.775H388.542V500.499H406.073V447.775Z" fill="#E0E0FF"/>
<path d="M437.578 414.338H420.046V500.499H437.578V414.338Z" fill="#B7B7FF"/>
<path d="M469.083 420.508H451.551V500.499H469.083V420.508Z" fill="#E0E0FF"/>
<path d="M500.587 392.897H483.056V500.499H500.587V392.897Z" fill="#B7B7FF"/>
<path d="M532.092 377.98H514.561V500.5H532.092V377.98Z" fill="#E0E0FF"/>
<path d="M563.597 364.679H546.066V500.5H563.597V364.679Z" fill="#B7B7FF"/>
<path d="M394.245 405.473L361.136 392.23L361.768 390.649L393.938 403.517L426.718 376.389L457.295 377.101L549.466 320.184L550.361 321.632L457.76 378.815L427.315 378.107L394.245 405.473Z" fill="#B7B7FF"/>
<path d="M389.815 315.705H353.844V330.66H389.815V315.705Z" fill="#B7B7FF"/>
<path d="M435.35 324.281H401.701V326.036H435.35V324.281Z" fill="#B7B7FF"/>
<path d="M832.951 547.952C854.64 547.952 872.222 530.37 872.222 508.681C872.222 486.993 854.64 469.41 832.951 469.41C811.263 469.41 793.681 486.993 793.681 508.681C793.681 530.37 811.263 547.952 832.951 547.952Z" fill="white"/>
<path d="M721.047 547.953C699.362 547.953 681.781 530.372 681.781 508.687C681.781 489.075 696.166 472.804 714.972 469.867C716.944 469.564 718.974 469.406 721.048 469.406C732.668 469.406 743.108 474.46 750.278 482.481C756.528 489.436 760.315 498.622 760.315 508.687C760.313 530.372 742.732 547.953 721.047 547.953Z" fill="white"/>
<path d="M721.047 508.687L714.971 469.867C716.943 469.564 718.974 469.406 721.047 469.406C732.667 469.406 743.107 474.46 750.278 482.481L721.047 508.687Z" fill="#B7B7FF"/>
<path d="M877.403 660.76H338.512V764.341H877.403V660.76Z" fill="white"/>
<path d="M878.967 765.89H338.774V660.992H878.967V765.89ZM340.091 764.573H877.65V662.309H340.091V764.573Z" fill="#B7B7FF"/>
<path d="M878.308 743.857H339.432V745.173H878.308V743.857Z" fill="#B7B7FF"/>
<path d="M878.308 723.141H339.432V724.457H878.308V723.141Z" fill="#B7B7FF"/>
<path d="M878.308 702.424H339.432V703.74H878.308V702.424Z" fill="#B7B7FF"/>
<path d="M878.308 681.707H339.432V683.024H878.308V681.707Z" fill="#B7B7FF"/>
<path d="M789.155 661.65H787.838V765.231H789.155V661.65Z" fill="#B7B7FF"/>
<path d="M699.342 661.65H698.026V765.231H699.342V661.65Z" fill="#B7B7FF"/>
<path d="M609.529 661.65H608.212V765.231H609.529V661.65Z" fill="#B7B7FF"/>
<path d="M519.716 661.65H518.399V765.231H519.716V661.65Z" fill="#B7B7FF"/>
<path d="M429.903 661.65H428.586V765.231H429.903V661.65Z" fill="#B7B7FF"/>
<path d="M354.233 748.829C362.067 737.914 363.76 723.86 370.758 712.368C374.172 706.761 378.692 701.201 384.945 698.694C395.726 694.372 398.476 708.284 398.705 716.011C399.042 727.376 397.157 739.707 406.545 748.24C409.678 751.088 413.824 752.779 418.054 751.657C423.126 750.31 426.281 745.664 428.791 741.397C435.977 729.179 440.541 715.176 445.534 701.962C448.055 695.286 451.261 686.735 457.866 682.995C467.28 677.663 468.31 689.459 468.288 695.676C468.262 702.489 468.334 709.301 468.393 716.114C468.421 719.388 467.748 726.22 471.597 728.044C473.861 729.118 475.656 727.067 476.927 725.419C478.031 723.987 478.8 722.312 479.901 720.886C480.94 719.544 481.864 718.733 483.735 718.578C485.455 718.435 486.277 718.416 487.446 720C488.096 720.882 488.399 722.124 488.673 723.16C490.026 728.271 488.636 734.061 491.532 738.783C493.144 741.411 496.611 744.032 499.869 743.518C506.447 742.479 508.119 731.759 508.908 726.605C509.965 719.711 510.951 712.857 512.851 706.127C514.764 699.351 517.243 691.256 522.396 686.188C524.358 684.259 527.059 682.334 529.961 682.66C534.2 683.135 535.526 687.919 536.563 691.349C538.901 699.091 540.302 707.191 540.296 715.289C540.292 720.883 538.665 727.882 542.393 732.723C544.394 735.32 547.787 736.81 551.035 736.001C555.78 734.82 556.927 730.211 557.891 726.035C558.083 725.205 558.228 724.345 558.541 723.549C559.466 721.195 559.834 720.921 562.374 720.817C565.171 720.702 565.28 721.357 565.73 723.675C566.183 726.011 565.948 728.37 566.651 730.68C567.54 733.601 569.593 736.289 572.973 735.282C576.094 734.352 577.763 731.014 578.794 728.195C581.757 720.089 581.481 711.113 581.923 702.63C582.216 697.011 582.668 690.974 585.263 685.874C586.952 682.555 591.938 677.181 595.793 680.682C600.81 685.239 600.32 696.344 600.435 702.473C600.681 715.626 598.473 728.832 600.313 741.94C601 746.841 602.392 754.161 607.831 756.015C615.365 758.583 620.914 750.381 622.916 744.382C624.508 739.612 624.871 734.618 626.003 729.749C626.599 727.189 627.51 722.511 631.006 723.973C634.018 725.233 635.263 729.497 637.911 731.423C646.47 737.648 651.708 725.506 652.715 718.933C654.186 709.328 652.67 698.746 656.266 689.556C657.175 687.232 658.602 684.767 660.737 683.361C665.965 679.919 671.114 684.681 672.689 689.549C673.884 693.241 673.659 697.386 673.729 701.219C673.805 705.38 673.916 709.539 673.993 713.7C674.121 720.572 673.503 727.589 673.944 734.438C674.251 739.197 676.053 743.534 680.166 746.22C690.491 752.966 702.562 742.442 709.151 735.059C716.637 726.668 721.673 716.696 725.546 706.233C727.504 700.942 729.464 695.537 732.528 690.765C734.21 688.146 738.884 681.865 742.72 683.601C745.218 684.731 746.049 689.249 746.586 691.577C747.492 695.505 747.927 699.539 748.254 703.552C748.875 711.189 748.919 718.846 749.059 726.501C749.177 732.983 749.726 742.762 756.931 745.386C768.182 749.484 773.549 733.372 776.664 725.93C779.244 719.766 782.388 711.404 788.388 707.739C793.49 704.623 797.041 709.428 798.928 713.705C800.737 717.805 801.669 722.36 801.727 726.832C801.767 729.955 801.522 733.868 804.942 735.376C812.409 738.666 819.209 726.316 822.111 721.45C824.757 717.011 826.765 712.361 828.982 707.705C831.767 701.857 840.892 690.676 844.685 701.882C846.118 706.115 845.616 710.679 845.333 715.049C845.013 720.006 844.659 724.976 844.816 729.947C844.996 735.688 846.036 748.215 854.701 746.884C859.95 746.078 865.357 740.296 869.29 737.016C875.053 732.211 880.49 727.049 885.649 721.603C886.426 720.783 885.187 719.539 884.408 720.362C879.248 725.807 873.812 730.97 868.049 735.775C864.962 738.348 861.822 740.957 858.487 743.204C854.151 746.126 849.906 744.802 848.175 740.328C844.777 731.546 846.847 720.682 847.303 711.543C847.574 706.108 846.892 693.669 838.567 695.179C833.579 696.084 830.135 701.461 828.051 705.611C825.688 710.315 823.753 715.158 821.094 719.718C818.456 724.242 815.418 729.626 811.022 732.665C807.709 734.956 803.826 733.872 803.456 729.42C803.286 727.388 803.505 725.366 803.265 723.324C802.574 717.432 800.332 707.695 793.95 705.309C785.095 701.998 778.645 716.898 776.125 722.73C773.546 728.701 771.545 736.348 766.776 741.007C763.413 744.292 757.956 745.431 754.518 741.633C752.004 738.855 751.37 734.475 751.018 730.903C749.651 717.025 751.72 702.689 747.761 689.084C746.619 685.161 744.445 680.314 739.59 682.033C731.449 684.915 727.743 695.49 724.97 702.777C720.537 714.426 715.623 725.575 706.984 734.837C702 740.18 694.773 746.784 686.974 746.627C676.734 746.421 675.458 736.204 675.753 728.374C676.04 720.717 675.739 713.037 675.572 705.381C675.438 699.21 676.268 691.858 673.222 686.214C671.281 682.62 667.163 679.754 662.92 680.507C659.314 681.146 656.635 684.542 655.178 687.665C651.259 696.067 652.296 706.204 651.411 715.195C650.906 720.331 649.993 729.142 643.982 730.929C636.421 733.177 636.18 721.812 629.819 721.596C623.075 721.366 623.02 737.561 621.853 741.822C620.414 747.08 617.678 753.353 611.69 754.494C607.986 755.199 605.519 752.869 604.081 749.684C600.81 742.443 601.212 733.319 601.416 725.56C601.567 719.766 602.085 713.988 602.187 708.193C602.296 701.945 603.539 675.108 591.622 677.985C583.378 679.976 581.267 690.623 580.534 697.675C579.557 707.075 580.384 716.703 577.701 725.883C577.004 728.27 576.078 731.025 574.081 732.647C572 734.338 569.518 732.893 568.492 730.718C567.797 729.241 567.83 727.385 567.693 725.809C567.462 723.136 567.126 719.16 564.149 718.039C560.707 716.742 557.885 720.26 556.849 723.086C555.566 726.588 555.985 731.192 552.429 733.512C548.86 735.84 544.671 733.645 542.949 730.199C541.155 726.609 541.804 722.237 541.978 718.374C542.155 714.452 541.986 710.533 541.535 706.634C540.771 700.024 539.535 692.773 536.817 686.654C533.068 678.212 524.716 680.457 519.745 686.521C511.307 696.817 509.184 712.469 507.355 725.169C506.769 729.243 505.993 733.471 504.171 737.197C503.237 739.107 501.896 741.367 499.623 741.751C495.821 742.395 492.675 738.012 491.841 734.897C490.484 729.831 491.765 711.86 481.217 717.376C477.943 719.089 477.629 723.177 474.837 725.232C470.471 728.446 470.203 721.342 470.172 718.592C470.125 714.467 470.101 710.342 470.065 706.217C470.017 700.677 470.439 694.925 469.765 689.414C469.333 685.896 468.26 681.797 464.628 680.346C454.798 676.42 447.463 692.288 444.825 698.94C439.231 713.046 434.749 728.124 426.88 741.175C422.559 748.341 415.19 753.709 407.789 747.001C402.5 742.209 400.553 735.169 400.414 728.27C400.234 719.306 402.919 701.184 392.173 696.524C382.808 692.464 372.885 705.38 368.924 712.023C362.157 723.373 360.408 737.234 352.719 747.945C352.057 748.862 353.579 749.739 354.233 748.829Z" fill="#9192FF"/>
<path d="M877.741 1035.6H745.087C739.997 1035.6 735.871 1031.47 735.871 1026.38V939.036C735.871 933.947 739.997 929.82 745.087 929.82H877.741C882.83 929.82 886.956 933.946 886.956 939.036V1026.38C886.956 1031.47 882.83 1035.6 877.741 1035.6Z" fill="#E0E0FF"/>
<path d="M883.625 975.651H739.202V977.324H883.625V975.651Z" fill="#B7B7FF"/>
<path d="M811.414 990.987C804.725 990.987 799.285 985.546 799.285 978.858V975.65H823.541V978.858C823.541 985.546 818.102 990.987 811.414 990.987ZM800.959 977.324V978.858C800.959 984.624 805.647 989.313 811.414 989.313C817.18 989.313 821.869 984.624 821.869 978.858V977.324H800.959Z" fill="#B7B7FF"/>
<path d="M839.991 935.226H838.318V913.529C838.318 910.608 835.94 908.231 833.019 908.231H789.808C786.886 908.231 784.51 910.608 784.51 913.529V935.226H782.836V913.529C782.836 909.685 785.963 906.558 789.808 906.558H833.019C836.863 906.558 839.991 909.685 839.991 913.529V935.226Z" fill="#B7B7FF"/>
<path d="M787.794 929.821H779.639V938.603H787.794V929.821Z" fill="#B7B7FF"/>
<path d="M843.208 929.821H835.052V938.603H843.208V929.821Z" fill="#B7B7FF"/>
<path d="M457.301 945.831H349.612V1035.6H457.301V945.831Z" fill="#E0E0FF"/>
<path d="M465.232 939.475H341.681V958.328H465.232V939.475Z" fill="#B7B7FF"/>
<path opacity="0.6" d="M457.301 1035.6H349.612V958.05C349.612 958.05 393.221 1023.6 457.301 1035.6Z" fill="#B7B7FF"/>
<path d="M1055.25 268.461C1018.37 268.461 988.481 298.355 988.481 335.231C988.481 358.223 1000.1 378.497 1017.79 390.507L1015.23 421.267L1040.29 400.297C1045.1 401.399 1050.11 402.001 1055.25 402.001C1092.13 402.001 1122.02 372.107 1122.02 335.23C1122.02 298.354 1092.13 268.461 1055.25 268.461Z" fill="white"/>
<path d="M1014.18 423.29L1016.87 390.943C998.537 378.289 987.604 357.501 987.604 335.23C987.604 297.929 1017.95 267.583 1055.25 267.583C1092.55 267.583 1122.9 297.929 1122.9 335.23C1122.9 372.532 1092.55 402.878 1055.25 402.878C1050.34 402.878 1045.38 402.331 1040.52 401.248L1014.18 423.29ZM1055.25 269.338C1018.92 269.338 989.359 298.897 989.359 335.23C989.359 357.09 1000.17 377.482 1018.28 389.78L1018.71 390.068L1016.28 419.244L1040.06 399.343L1040.48 399.441C1045.36 400.556 1050.32 401.122 1055.25 401.122C1091.58 401.122 1121.14 371.563 1121.14 335.23C1121.14 298.896 1091.58 269.338 1055.25 269.338Z" fill="#5254CF"/>
<path d="M1066.61 349.278H1046.76V369.881H1066.61V349.278Z" fill="white"/>
<path d="M1067.49 370.759H1045.88V348.401H1067.49V370.759ZM1047.64 369.003H1065.74V350.156H1047.64V369.003Z" fill="#5254CF"/>
<path d="M1072.8 335.042C1072.8 325.894 1065.17 318.528 1055.93 318.952C1047.52 319.338 1040.68 326.42 1040.58 334.84C1040.54 337.836 1041.33 340.642 1042.72 343.055C1045.22 347.393 1046.76 352.219 1046.76 357.228V360.891H1066.61V357.083C1066.61 352.141 1068.14 347.379 1070.63 343.108C1072 340.738 1072.8 337.984 1072.8 335.042Z" fill="white"/>
<path d="M1067.49 361.768H1045.88V357.228C1045.88 352.627 1044.56 348.006 1041.96 343.494C1040.45 340.871 1039.67 337.875 1039.7 334.83C1039.81 325.996 1047.07 318.48 1055.89 318.074C1060.62 317.862 1065.03 319.522 1068.42 322.757C1071.81 325.994 1073.67 330.358 1073.67 335.042C1073.67 338.035 1072.88 340.976 1071.38 343.549C1068.8 347.985 1067.49 352.539 1067.49 357.082V361.768ZM1047.64 360.012H1065.74V357.082C1065.74 352.224 1067.13 347.374 1069.86 342.666C1071.21 340.361 1071.92 337.725 1071.92 335.042C1071.92 330.841 1070.24 326.929 1067.21 324.027C1064.17 321.127 1060.21 319.631 1055.97 319.828C1048.07 320.192 1041.56 326.931 1041.46 334.851C1041.43 337.581 1042.12 340.266 1043.48 342.616C1046.24 347.398 1047.64 352.315 1047.64 357.228L1047.64 360.012Z" fill="#5254CF"/>
<path d="M1053.01 333.151C1051.77 334.929 1049.67 335.613 1048.34 334.677C1047.01 333.742 1046.94 331.541 1048.18 329.763C1049.43 327.985 1051.52 327.302 1052.86 328.237C1054.19 329.172 1054.26 331.373 1053.01 333.151Z" fill="white"/>
<path d="M1049.72 335.976C1049.03 335.976 1048.38 335.781 1047.84 335.395C1046.96 334.781 1046.45 333.775 1046.42 332.564C1046.38 331.446 1046.75 330.273 1047.47 329.258C1048.18 328.244 1049.15 327.494 1050.22 327.148C1051.35 326.776 1052.5 326.914 1053.36 327.519C1054.23 328.125 1054.74 329.156 1054.78 330.351C1054.82 331.468 1054.44 332.641 1053.73 333.656C1053.02 334.67 1052.04 335.42 1050.98 335.767C1050.55 335.907 1050.13 335.976 1049.72 335.976ZM1051.47 328.695C1051.25 328.695 1051.01 328.735 1050.76 328.816C1050.07 329.042 1049.39 329.571 1048.9 330.266C1048.41 330.962 1048.15 331.779 1048.17 332.507C1048.19 333.153 1048.43 333.667 1048.84 333.957C1049.26 334.245 1049.82 334.299 1050.44 334.097C1051.14 333.867 1051.8 333.351 1052.3 332.646C1052.78 331.951 1053.05 331.134 1053.03 330.406C1053.01 329.76 1052.77 329.245 1052.35 328.955C1052.11 328.783 1051.81 328.695 1051.47 328.695Z" fill="#5254CF"/>
<path d="M1025.76 306.775L1024.67 308.149L1034.67 316.088L1035.76 314.714L1025.76 306.775Z" fill="#5254CF"/>
<path d="M1056.08 290.07L1054.32 290.126L1054.87 307.26L1056.63 307.204L1056.08 290.07Z" fill="#5254CF"/>
<path d="M1085.58 303.318L1075.22 313.395L1076.44 314.654L1086.8 304.577L1085.58 303.318Z" fill="#5254CF"/>
<path d="M217.438 352.801C217.438 320.379 191.155 294.096 158.733 294.096C126.311 294.096 100.028 320.379 100.028 352.801C100.028 385.223 126.311 411.506 158.733 411.506C164.06 411.506 169.216 410.783 174.122 409.453L194.501 426.504L192.367 400.902C207.52 390.286 217.438 372.707 217.438 352.801Z" fill="white"/>
<path d="M195.55 428.527L173.909 410.418C168.947 411.722 163.844 412.383 158.733 412.383C125.878 412.383 99.15 385.654 99.15 352.801C99.15 319.946 125.879 293.218 158.733 293.218C191.587 293.218 218.315 319.947 218.315 352.801C218.315 372.041 208.967 390.143 193.283 401.329L195.55 428.527ZM174.335 408.486L193.452 424.481L191.451 400.473L191.863 400.183C207.328 389.349 216.56 371.636 216.56 352.8C216.56 320.915 190.618 294.973 158.733 294.973C126.847 294.973 100.906 320.915 100.906 352.8C100.906 384.685 126.847 410.627 158.733 410.627C163.842 410.627 168.942 409.947 173.893 408.606L174.335 408.486Z" fill="#5254CF"/>
<path d="M157.959 371.113L141.314 354.468L142.555 353.227L157.384 368.056L174.572 328.905L176.18 329.611L157.959 371.113Z" fill="#5254CF"/>
<path d="M478.027 429.746L462.284 438.964L294.894 537.049C289.744 540.068 283.715 539.356 281.325 535.443L281.318 535.431C278.928 531.518 281.05 525.83 286.088 522.627L449.479 418.734L465.201 408.739L478.027 429.746Z" fill="#5254CF"/>
<path opacity="0.6" d="M478.027 429.746L462.283 438.964C459.211 436.021 456.51 432.676 454.234 428.947C452.245 425.69 450.665 422.261 449.479 418.735L465.201 408.74L478.027 429.746Z" fill="#1B1B43"/>
<path d="M455.909 435.002C453.427 436.517 450.186 435.734 448.671 433.252C447.155 430.769 447.939 427.529 450.421 426.013C452.903 424.498 456.144 425.281 457.659 427.763C459.175 430.246 458.392 433.486 455.909 435.002Z" fill="white"/>
<path d="M535.241 463.72C581.262 463.72 618.569 426.413 618.569 380.392C618.569 334.371 581.262 297.063 535.241 297.063C489.22 297.063 451.913 334.371 451.913 380.392C451.913 426.413 489.22 463.72 535.241 463.72Z" fill="#5254CF"/>
<path d="M535.241 447.983C572.571 447.983 602.832 417.721 602.832 380.392C602.832 343.062 572.571 312.801 535.241 312.801C497.912 312.801 467.65 343.062 467.65 380.392C467.65 417.721 497.912 447.983 535.241 447.983Z" fill="white"/>
<mask id="mask0_3_3" style="mask-type:luminance" maskUnits="userSpaceOnUse" x="467" y="312" width="136" height="136">
<path d="M535.241 447.983C572.571 447.983 602.832 417.721 602.832 380.392C602.832 343.062 572.571 312.801 535.241 312.801C497.912 312.801 467.65 343.062 467.65 380.392C467.65 417.721 497.912 447.983 535.241 447.983Z" fill="white"/>
</mask>
<g mask="url(#mask0_3_3)">
<path d="M507.762 403.238H486.576V533.271H507.762V403.238Z" fill="#B7B7FF"/>
<path d="M545.834 386.088H524.648V534.148H545.834V386.088Z" fill="#E0E0FF"/>
<path d="M583.907 367.674H562.72V531.808H583.907V367.674Z" fill="#B7B7FF"/>
</g>
<mask id="mask1_3_3" style="mask-type:luminance" maskUnits="userSpaceOnUse" x="467" y="312" width="136" height="136">
<path d="M535.241 447.983C572.571 447.983 602.832 417.721 602.832 380.392C602.832 343.062 572.571 312.801 535.241 312.801C497.912 312.801 467.65 343.062 467.65 380.392C467.65 417.721 497.912 447.983 535.241 447.983Z" fill="white"/>
</mask>
<g mask="url(#mask1_3_3)">
<path d="M560.279 342.837L463.196 373.893L463.999 376.402L561.081 345.346L560.279 342.837Z" fill="#B7B7FF"/>
<path d="M554.195 355.401L552.05 353.874L558.443 344.897L549.184 341.728L550.038 339.238L560.261 342.738C560.799 342.886 561.275 343.349 561.461 343.957C561.647 344.564 561.511 345.215 561.1 345.698L554.195 355.401ZM559.396 345.223C559.424 345.235 559.452 345.245 559.481 345.253L559.396 345.223ZM559.025 344.08C559.011 344.095 558.999 344.113 558.987 344.134L559.025 344.08Z" fill="#B7B7FF"/>
</g>
<path d="M368.502 1000.68C357.898 1000.83 342.695 1001.08 332.863 1001.22C332.969 996.463 333.144 991.722 333.355 987.386C333.829 976.572 334.443 968.215 334.443 968.215L364.833 968.004C364.833 968.004 364.693 971.024 364.833 975.553C365.026 982.26 365.816 992.267 368.502 1000.68Z" fill="#FFBC96"/>
<path d="M380.273 1015.54C374.443 1013.73 370.794 1007.78 368.51 1000.67C357.899 1000.84 342.696 1001.07 332.857 1001.22C332.593 1012.42 332.691 1023.69 333.766 1030.01C334.231 1032.76 336.584 1034.77 339.366 1034.77H391.592C395.848 1034.77 399.521 1031.21 399.08 1026.98C398.552 1021.91 392.577 1019.35 380.273 1015.54Z" fill="#1B1B43"/>
<path d="M364.833 975.553L333.355 987.386C333.829 976.572 334.443 968.215 334.443 968.215L364.833 968.004C364.833 968.004 364.693 971.024 364.833 975.553Z" fill="#D28572"/>
<path d="M349.052 1034.31C347.937 1029.02 345.722 1025.34 342.467 1023.38C338.203 1020.8 333.521 1022.09 333.474 1022.1L332.989 1020.41C333.207 1020.35 338.42 1018.89 343.352 1021.86C347.054 1024.09 349.549 1028.15 350.77 1033.95L349.052 1034.31Z" fill="#656590"/>
<path d="M212.428 962.316C212.428 962.316 209.058 970.146 206.635 979.784C205.476 984.384 204.546 989.405 204.3 994.163C194.31 990.564 180.02 985.402 170.75 982.049C175.051 971.48 179.651 961.122 182.126 955.68L182.197 955.539C183.268 953.152 183.917 951.747 183.917 951.747L212.428 962.316Z" fill="#FFBC96"/>
<path d="M210.039 1012.23C205.225 1008.48 203.92 1001.62 204.298 994.163C194.316 990.562 180.014 985.401 170.759 982.057C166.549 992.436 162.653 1003.01 161.418 1009.31C160.882 1012.04 162.371 1014.75 164.973 1015.74L213.819 1034.22C217.8 1035.73 222.494 1033.7 223.58 1029.58C224.879 1024.66 220.199 1020.15 210.039 1012.23Z" fill="#1B1B43"/>
<path d="M212.428 962.316C212.428 962.316 209.058 970.146 206.635 979.784L181.161 958.348L182.127 955.68L182.197 955.539C183.268 953.152 183.917 951.747 183.917 951.747L212.428 962.316Z" fill="#D28572"/>
<path d="M172.787 1018.45L171.23 1017.63C177.771 1005.1 166.244 998.885 165.75 998.628L166.563 997.071C166.7 997.143 180.129 1004.37 172.787 1018.45Z" fill="#656590"/>
<path d="M379.756 974.149L323.875 978.538L312.165 778.977L294.854 713.37L272.207 627.574L271.031 623.097L265.571 602.416L264.763 599.326L275.455 598.36L333.232 593.181L336.726 608.982V608.999L371.329 765.477C372.452 770.568 373.12 775.765 373.295 780.979L379.756 974.149Z" fill="#5254CF"/>
<path d="M299.296 668.971L294.854 713.37L287.656 785.245C286.831 793.514 284.988 801.678 282.161 809.49L222.628 974.149L172.594 954.837L219.117 786.298C231.108 716.917 229.124 663.669 232.214 629.891C232.407 627.784 232.618 625.765 232.846 623.817C234.093 613.476 236.024 605.277 239.307 599.326L265.571 602.416L284.075 604.593L288.095 621.604L288.903 625.045L299.296 668.971Z" fill="#5254CF"/>
<path opacity="0.6" d="M336.726 608.982L337.328 615.711C337.328 615.711 258.911 636.779 232.214 629.891C232.407 627.784 232.618 625.765 232.846 623.817C234.093 613.476 236.024 605.277 239.307 599.326L265.571 602.416L264.763 599.326L275.455 598.36L333.232 593.181L336.726 608.982Z" fill="#1B1B43"/>
<path d="M311.314 779.931L285.099 676.382L263.618 669.509L264.153 667.836L286.562 675.007L286.682 675.479L313.016 779.499L311.314 779.931Z" fill="#1B1B43"/>
<path d="M351.536 784.486L350.919 782.843C364.695 777.676 372.183 772.881 372.257 772.833L373.21 774.308C372.902 774.506 365.509 779.246 351.536 784.486Z" fill="#1B1B43"/>
<path d="M284.426 802.094C284.294 802.082 271.037 800.731 257.953 797.242L258.406 795.545C271.354 798.998 284.47 800.335 284.601 800.349L284.426 802.094Z" fill="#1B1B43"/>
<path d="M177.258 939.666L176.651 941.315L227.562 960.041L228.169 958.392L177.258 939.666Z" fill="#1B1B43"/>
<path d="M378.824 959.201L323.083 963.13L323.207 964.882L378.948 960.953L378.824 959.201Z" fill="#1B1B43"/>
<path d="M260.813 472.337L237.066 481.896C230.166 484.673 224.659 490.088 221.766 496.941L201.833 544.645C197.839 554.206 200.498 565.252 208.405 571.947C214.935 577.476 223.933 579.067 231.964 576.115L248.816 569.919L260.813 472.337Z" fill="#FFB147"/>
<path d="M425.052 428.996C420.614 431.189 415.494 440.526 417.437 443.885C419.029 446.637 422.735 442.912 423.958 441.634C426.204 439.288 432.001 433.019 428.801 429.458C427.78 428.322 426.449 428.305 425.052 428.996Z" fill="#FFBC96"/>
<path d="M414.31 432.369C410.626 435.677 408.209 446.047 410.985 448.759C413.258 450.981 415.825 446.396 416.659 444.836C418.19 441.972 422.087 434.374 418.046 431.805C416.756 430.986 415.47 431.327 414.31 432.369Z" fill="#FFBC96"/>
<path d="M407.178 437.579C403.456 440.772 400.836 450.583 403.527 453.075C405.731 455.116 408.374 450.746 409.233 449.26C410.812 446.531 414.838 439.295 410.89 436.967C409.631 436.224 408.35 436.573 407.178 437.579Z" fill="#FFBC96"/>
<path d="M400.383 440.006C396.662 443.199 394.042 453.011 396.732 455.503C398.937 457.544 401.579 453.173 402.439 451.687C404.018 448.958 408.044 441.723 404.096 439.394C402.836 438.652 401.556 439.001 400.383 440.006Z" fill="#FFBC96"/>
<path d="M260.813 472.614L236.088 515.12C236.088 515.12 242.526 585.345 237.844 593.97C233.162 602.594 222.629 609.37 229.066 614.298C235.503 619.227 286.416 627.851 341.425 614.914C356.641 610.602 346.107 602.594 342.596 598.898C339.085 595.202 334.403 502.183 334.403 502.183L302.767 473.356L279.394 467.07L260.813 472.614Z" fill="#FFB147"/>
<path opacity="0.2" d="M302.29 473.361C297.901 481.042 246.241 488.938 260.813 472.337L275.736 469.191L302.29 473.361Z" fill="#1B1B43"/>
<path d="M369.222 523.396L348.838 493.16C344.111 485.478 336.402 480.106 327.557 478.33L302.802 473.361L317.432 528.223C317.432 528.223 340.255 560.263 360.883 567.725C379.396 574.421 403.951 563.423 417.491 491.061L386.794 486.875L369.222 523.396Z" fill="#FFB147"/>
<path d="M434.326 448.05C431.223 447.654 420.574 463.705 420.574 463.705L403.362 469.566C397.059 471.712 391.881 476.302 388.994 482.302L386.794 486.875L417.491 491.061C417.996 488.361 418.491 485.598 418.965 482.724C429.498 473.215 441.202 448.928 434.326 448.05Z" fill="#FFBC96"/>
<path d="M307.014 405.534L313.24 414.146C314.299 415.611 313.642 417.595 311.873 418.279L305.228 420.843L300.538 410.433L307.014 405.534Z" fill="#D28572"/>
<path d="M266.765 452.838C268.327 437.002 267.695 421.131 267.695 421.131L296.066 423.185C295.82 426.345 295.785 429.611 295.908 432.894C296.101 438.073 296.68 443.322 297.488 448.396C297.927 451.187 298.436 453.926 298.98 456.559L266.765 452.838Z" fill="#FFBC96"/>
<path d="M297.488 448.396C285.479 443.41 280.862 432.683 280.862 432.683L295.908 432.894C296.101 438.073 296.68 443.322 297.488 448.396Z" fill="#D28572"/>
<path d="M266.76 452.829L260.813 472.336C274.503 475.629 288.519 475.772 302.802 473.36L298.983 456.554L266.76 452.829Z" fill="#FFF5E8"/>
<path d="M306.313 390.993L309.252 430.246C309.514 431.922 308.488 433.465 307.039 434.818C304.552 437.14 301.139 438.2 297.74 438.059L277.638 437.224L263.3 421.131L274.419 386.896L294.609 386.603L306.313 390.993Z" fill="#FFBC96"/>
<path d="M273.322 414.329C273.322 414.329 278.589 430.788 267.397 439.127C255.326 435.177 232.942 398.528 260.813 386.897C260.813 386.897 268.494 367.366 289.342 374.608C307.744 381.001 312.604 392.164 312.604 392.164C312.604 392.164 299.656 401.82 284.514 392.823C284.514 392.823 286.05 412.353 273.322 414.329Z" fill="#1B1B43"/>
<path d="M280.749 407.605C284.026 411.663 283.702 417.361 280.025 420.33C276.348 423.299 270.71 422.416 267.433 418.357C264.156 414.299 264.48 408.602 268.157 405.633C271.835 402.663 277.472 403.546 280.749 407.605Z" fill="#FFBC96"/>
<path d="M276.706 417.049C276.635 416.764 274.883 410.071 270.169 411.095L269.891 409.807C274.657 408.775 277.273 413.885 277.983 416.73L276.706 417.049Z" fill="#1B1B43"/>
<path opacity="0.4" d="M301.759 416.961C302.502 413.815 300.554 410.664 297.409 409.921C294.264 409.178 291.112 411.126 290.369 414.271C289.627 417.416 291.574 420.568 294.72 421.311C297.865 422.054 301.017 420.106 301.759 416.961Z" fill="#FE5B52"/>
<path d="M235.446 617.924C230.119 616.655 227.107 614.678 226.234 611.88C224.816 607.321 229.523 602.1 233.675 597.493C234.324 596.774 234.95 596.079 235.524 595.417C236.673 594.092 237.463 592.519 237.812 590.868C241.662 572.617 235.28 515.791 235.216 515.218L236.96 515.021C237.227 517.367 243.439 572.704 239.53 591.23C239.121 593.172 238.194 595.017 236.851 596.567C236.27 597.238 235.635 597.942 234.98 598.668C231.331 602.717 226.789 607.754 227.911 611.358C228.573 613.486 231.245 615.119 235.852 616.217L235.446 617.924Z" fill="#1B1B43"/>
<path d="M337.368 616.587L337.29 614.835C343.287 614.567 346.956 613.136 347.898 610.694C348.848 608.232 347.116 604.563 343.148 600.629C342.132 599.621 341.424 598.321 341.101 596.87C337.946 582.682 334.585 535.78 334.552 535.308L336.302 535.183C336.336 535.655 339.688 582.426 342.816 596.489C343.065 597.612 343.608 598.612 344.384 599.383C348.936 603.897 350.766 608.138 349.535 611.326C348.306 614.512 344.212 616.283 337.368 616.587Z" fill="#1B1B43"/>
<path d="M366.06 531.242L364.483 530.471L386.284 485.92L417.609 490.191L417.372 491.931L387.303 487.832L366.06 531.242Z" fill="#1B1B43"/>
<path d="M894.15 421.716C883.762 415.425 881.422 397.43 891.078 392.017C900.733 386.604 906.878 391.432 906.878 391.432C906.878 391.432 939.266 379.619 951.5 409.72C960.717 432.397 953.402 444.247 961.449 455.658C970.618 468.662 985.296 480.383 966.131 503.206L921.362 492.233L909.658 437.078L894.15 421.716Z" fill="#1B1B43"/>
<path d="M1049.08 927.265L1016.16 941.749C1016.16 941.749 1020.89 953.971 1024.94 968.187L1058.79 957.374L1049.08 927.265Z" fill="#FFBC96"/>
<path d="M1058.79 957.374L1024.94 968.187C1029.58 984.473 1033.32 1003.38 1028.03 1009.54C1021.15 1017.56 1015.15 1024.19 1013.71 1029.77C1012.87 1033.05 1016.23 1035.81 1019.26 1034.29L1062.99 1012.23C1070.24 1008.57 1073.36 999.892 1070.1 992.457L1058.79 957.374Z" fill="#1B1B43"/>
<path d="M1062.44 968.693L1027.9 979.498L1028.43 981.175L1062.96 970.37L1062.44 968.693Z" fill="#656590"/>
<path d="M1021.61 1018.31L1021.25 1016.6C1029.63 1014.82 1034.51 1011.74 1035.75 1007.45C1037.79 1000.39 1029.39 992.123 1029.3 992.041L1030.53 990.783C1030.91 991.149 1039.76 999.871 1037.44 1007.93C1036 1012.9 1030.68 1016.39 1021.61 1018.31Z" fill="#656590"/>
<path d="M921.947 959.226L883.908 962.737C883.908 962.737 884.896 976.239 883.727 989.793L920.317 989.255L921.947 959.226Z" fill="#FFBC96"/>
<path d="M883.728 989.793C882.694 1001.79 879.97 1013.83 873.375 1016.58C859.33 1022.43 848.212 1026.53 849.382 1034.72H903.378C911.495 1034.72 918.195 1028.37 918.634 1020.27L920.317 989.254L883.728 989.793Z" fill="#1B1B43"/>
<path d="M883.918 998.053L883.889 999.809L919.003 1000.39L919.032 998.636L883.918 998.053Z" fill="#656590"/>
<path d="M872.481 1023.22C870.146 1023.22 867.427 1022.88 864.332 1022.19L864.716 1020.47C872.412 1022.2 877.645 1021.66 879.834 1018.95C882.747 1015.33 879.777 1008.82 879.748 1008.75L881.34 1008.01C881.484 1008.32 884.793 1015.59 881.201 1020.05C879.498 1022.16 876.578 1023.22 872.481 1023.22Z" fill="#656590"/>
<path d="M921.45 968.232C920.993 968.39 920.572 968.496 920.186 968.583C912.584 970.339 887.426 968.583 887.426 968.583C886.285 968.338 885.196 968.022 884.16 967.653C860.635 959.086 862.233 917.952 865.762 881.979C869.01 848.991 855.228 680.663 864.743 623.465L924.294 610.439L924.645 620.463L925.365 640.934L926.629 677.152C926.629 677.152 928.876 712.194 931.948 756.102C936.548 821.937 943.009 907.734 946.52 925.29C952.12 953.222 930.965 965.458 921.45 968.232Z" fill="#5254CF"/>
<path d="M1056.18 931.768C1054.86 933.296 1053.4 934.648 1051.84 935.824C1043.83 941.986 1033.04 944.251 1023.56 946.814C1021.89 947.27 1020.15 947.604 1018.38 947.815C1009.55 948.903 999.908 946.884 995.782 939.388C974.645 900.87 950.821 824.413 931.948 756.102C918.149 706.225 907.001 660.667 901.453 637.44C899.013 627.17 897.661 621.271 897.661 621.271L924.645 620.463L970.519 619.076C971.765 625.256 973.188 631.769 974.785 638.529C990.445 705.365 1021.29 797.253 1033.37 832.401C1040.62 853.451 1051.59 872.236 1056.42 894.286C1058.98 905.961 1064.95 921.639 1056.18 931.768Z" fill="#5254CF"/>
<path opacity="0.6" d="M974.785 638.529C956.053 641.601 939.532 642.005 925.365 640.934C916.446 640.267 908.458 639.003 901.453 637.44C877.419 632.138 864.743 623.465 864.743 623.465L924.294 610.439L924.645 620.463L970.519 619.076C971.765 625.256 973.187 631.769 974.785 638.529Z" fill="#1B1B43"/>
<path d="M931.103 756.34L912.74 691.29L893.85 684.419L894.45 682.771L914.184 689.945L914.307 690.379L932.794 755.863L931.103 756.34Z" fill="#1B1B43"/>
<path d="M1043.85 939.768L1042.32 938.892C1051.18 923.506 1033.42 876.094 1010.93 816.068C989.099 757.783 961.925 685.244 952.096 620.524L953.831 620.26C963.633 684.798 990.772 757.242 1012.58 815.452C1035.23 875.912 1053.12 923.664 1043.85 939.768Z" fill="#1B1B43"/>
<path d="M877.507 568.181C875.382 583.016 872.205 602.398 872.205 602.398H837.531L845.976 555.997L848.065 544.463C848.065 544.463 877.91 551.485 879.227 551.485C879.736 551.485 878.823 558.964 877.507 568.181Z" fill="#FFBC96"/>
<path d="M877.507 568.181L875.927 571.675L845.976 555.997L848.065 544.463C848.065 544.463 877.911 551.485 879.227 551.485C879.736 551.485 878.823 558.964 877.507 568.181Z" fill="#D28572"/>
<path d="M870.01 557.63C870.01 557.63 875.716 590.987 864.743 623.465C864.743 623.465 919.167 640.144 970.519 619.076L958.669 544.024L962.619 505.839L884.055 506.717L857.282 515.495L870.01 557.63Z" fill="#1B1B43"/>
<path d="M984.816 501.566C981.348 491.656 973.353 484.001 963.303 480.966L948.549 476.51C942.608 485.159 932.008 496.184 916.533 496.184C898.34 496.184 886.929 485.738 880.64 477.205L870.446 479.69C859.505 482.357 851.004 490.967 848.475 501.94L837.093 551.339L870.01 557.63L870.888 519.884L956.474 515.934L958.669 544.024C958.669 544.024 983.393 533.197 999.779 544.317L984.816 501.566Z" fill="#1B1B43"/>
<path d="M1022.31 498.378C1017.57 507.648 1011.2 547.834 1008.26 579.136C1007.3 589.424 1004.37 597.535 1000.31 603.451C994.343 612.194 985.881 616.162 977.664 615.284C974.504 614.968 971.397 613.932 968.465 612.194C954.332 603.82 956.141 568.041 957.721 551.942C958.212 547.096 958.669 544.024 958.669 544.024C967.008 539.424 980.175 538.757 980.175 538.757C980.35 536.949 980.561 535.123 980.772 533.245C982.562 517.075 985.284 498.729 987.636 486.528C990.27 472.922 995.536 477.978 995.536 477.978C998.17 473.132 1002.12 477.311 1002.12 477.311C1005.63 469.621 1010.02 476.872 1010.02 476.872C1015.5 468.972 1018.5 480.822 1018.5 480.822C1018.5 480.822 1035.51 466.812 1038.41 470.868C1039.87 472.922 1029.03 485.211 1022.31 498.378Z" fill="#FFBC96"/>
<path d="M887.566 593.545H813.831V602.398H887.566V593.545Z" fill="white"/>
<path d="M845.408 602.477H769.351C765.693 602.477 762.369 600.348 760.839 597.026L731.222 532.721C730.238 530.583 731.799 528.145 734.152 528.145H805.488C808.953 528.145 812.101 530.161 813.55 533.308L845.408 602.477Z" fill="#5254CF"/>
<path d="M870.449 602.398C869.519 605.857 868.272 609.034 866.587 611.861C862.514 618.743 855.983 623.465 845.923 624.729C842.482 625.186 838.638 625.203 834.319 624.782C799.47 621.324 789.393 602.258 789.393 602.258C789.393 602.258 785.513 594.164 793.747 596.025C793.747 596.025 795.291 590.881 801.647 596.253C801.647 596.253 800.892 589.881 807.142 595.709C807.142 595.709 806.264 589.231 813.058 594.831C819.87 600.414 825.137 602.065 833.371 602.398C841.587 602.732 870.449 602.398 870.449 602.398Z" fill="#FFBC96"/>
<path d="M868.652 519.865L866.9 519.966L869.093 557.712L870.845 557.61L868.652 519.865Z" fill="#5254CF"/>
<path d="M912.743 509.79C908.589 509.79 904.932 509.29 901.856 508.597C891.384 506.237 885.356 501.311 885.104 501.101L886.224 499.75C886.462 499.945 910.181 518.984 944.318 498.503L945.22 500.009C932.705 507.519 921.599 509.79 912.743 509.79Z" fill="#5254CF"/>
<path d="M958.192 526.743L956.44 526.876L957.756 544.14L959.508 544.006L958.192 526.743Z" fill="#5254CF"/>
<path d="M931.311 552.659C925.67 552.659 920.967 548.47 920.333 542.846L918.924 530.334L943.065 528.746L942.348 542.198C942.041 547.973 937.27 552.568 931.487 552.658C931.429 552.659 931.369 552.659 931.311 552.659ZM920.875 531.964L922.079 542.649C922.617 547.429 926.674 550.962 931.46 550.903C936.324 550.826 940.338 546.962 940.596 542.104L941.207 530.627L920.875 531.964Z" fill="#5254CF"/>
<path d="M979.196 538.77L972.887 582.876L974.625 583.124L980.934 539.018L979.196 538.77Z" fill="#D28572"/>
<path d="M1010.71 476.755L1009.41 476.991L1010.73 484.233L1012.03 483.998L1010.71 476.755Z" fill="#D28572"/>
<path d="M1002.81 476.975L1001.51 477.211L1002.83 484.453L1004.13 484.217L1002.81 476.975Z" fill="#D28572"/>
<path d="M996.226 477.414L994.93 477.65L996.247 484.892L997.543 484.656L996.226 477.414Z" fill="#D28572"/>
<path d="M1017.34 475.946L1016.1 476.407L1020.2 487.38L1021.43 486.919L1017.34 475.946Z" fill="#D28572"/>
<path d="M980.151 538.747L957.609 551.879C958.1 547.033 958.557 543.961 958.557 543.961C966.896 539.361 980.151 538.747 980.151 538.747Z" fill="#D28572"/>
<path opacity="0.4" d="M1000.31 603.451C994.343 612.194 985.881 616.162 977.664 615.284C977.577 614.705 977.541 614.108 977.541 613.511C977.541 605.997 983.633 599.905 991.147 599.905C994.676 599.905 997.907 601.257 1000.31 603.451Z" fill="#FE5B52"/>
<path opacity="0.4" d="M866.587 611.861C862.514 618.743 855.983 623.465 845.923 624.729C845.888 624.308 845.871 623.887 845.871 623.465C845.871 615.951 851.963 609.859 859.477 609.859C862.075 609.859 864.515 610.597 866.587 611.861Z" fill="#FE5B52"/>
<path d="M815.824 604.874C812.354 604.194 808.013 598.826 806.557 596.011L807.727 595.406C809.225 598.303 813.319 603.042 816.078 603.581L815.824 604.874Z" fill="#D28572"/>
<path d="M807.58 605.784C804.636 602.758 801.924 598.99 800.83 596.404L802.044 595.892C803.08 598.341 805.684 601.947 808.523 604.865L807.58 605.784Z" fill="#D28572"/>
<path d="M799.46 605.564C796.516 602.539 793.804 598.77 792.71 596.185L793.924 595.672C794.96 598.121 797.564 601.727 800.403 604.645L799.46 605.564Z" fill="#D28572"/>
<path d="M948.556 476.503C942.605 485.158 932.001 496.184 916.534 496.184C898.346 496.184 886.934 485.738 880.649 477.205L899.417 472.623C899.873 469.253 900.259 465.969 900.575 462.862C900.821 460.422 901.032 458.087 901.225 455.875C901.541 452.241 901.752 448.958 901.927 446.149C902.155 442.304 902.261 439.39 902.313 437.774C902.349 436.844 902.349 436.352 902.349 436.352L928.683 425.819C928.683 425.819 927.805 460.053 935.705 472.623L948.556 476.503Z" fill="#FFBC96"/>
<path d="M923.264 449.075C923.264 449.075 916.218 457.314 900.575 462.862C900.821 460.422 901.032 458.087 901.225 455.875C901.541 452.241 901.752 448.958 901.927 446.149L923.264 449.075Z" fill="#D28572"/>
<path d="M895.32 404.453C895.32 404.453 881.861 441.028 891.516 447.758C900.105 453.744 911.413 454.488 922.532 451.562L929.848 426.691L925.459 402.405L895.32 404.453Z" fill="#FFBC96"/>
<path d="M926.044 426.983C926.044 426.983 916.538 430.628 912.584 417.327C909.365 406.501 895.321 404.453 895.321 404.453L901.026 399.186L928.092 398.454L938.041 410.598L934.676 426.398L926.044 426.983Z" fill="#1B1B43"/>
<path d="M938.327 434.591C935.257 439.909 929.365 442.255 925.166 439.831C920.967 437.407 920.053 431.131 923.123 425.813C926.193 420.495 932.086 418.149 936.285 420.573C940.483 422.996 941.398 429.273 938.327 434.591Z" fill="#FFBC96"/>
<path d="M927.616 434.964L926.299 434.951C926.299 434.867 926.473 426.677 934.599 425.744L934.75 427.053C927.789 427.851 927.62 434.674 927.616 434.964Z" fill="#1B1B43"/>
<path d="M893.528 423.691C894.356 423.691 895.028 423.02 895.028 422.192C895.028 421.364 894.356 420.692 893.528 420.692C892.7 420.692 892.029 421.364 892.029 422.192C892.029 423.02 892.7 423.691 893.528 423.691Z" fill="#1B1B43"/>
<path d="M905.259 424.272C905.259 425.274 904.447 426.088 903.444 426.088C902.441 426.088 901.629 425.275 901.629 424.272C901.629 423.27 902.441 422.457 903.444 422.457C904.447 422.457 905.259 423.27 905.259 424.272Z" fill="#1B1B43"/>
<path d="M896.81 418.774H892.331C891.7 418.774 891.188 418.262 891.188 417.631C891.188 417 891.7 416.488 892.331 416.488H896.81C897.441 416.488 897.953 417 897.953 417.631C897.953 418.262 897.441 418.774 896.81 418.774Z" fill="#1B1B43"/>
<path d="M908.063 421.918L903.108 419.824C902.527 419.578 902.255 418.908 902.5 418.326C902.746 417.745 903.417 417.472 903.998 417.718L908.953 419.812C909.535 420.057 909.807 420.728 909.561 421.31C909.316 421.891 908.646 422.163 908.063 421.918Z" fill="#1B1B43"/>
<path d="M892.833 433.585C892.574 433.585 892.329 433.432 892.224 433.177C891.347 431.042 891.323 429.402 892.154 428.301C893.028 427.142 894.573 426.984 895.348 426.984L897.021 423.737C897.189 423.413 897.589 423.288 897.908 423.453C898.23 423.621 898.357 424.017 898.191 424.34L896.12 428.363L895.669 428.314C895.65 428.315 893.922 428.139 893.202 429.098C892.681 429.792 892.764 431.029 893.442 432.676C893.581 433.012 893.42 433.397 893.084 433.535C893.001 433.569 892.917 433.585 892.833 433.585Z" fill="#1B1B43"/>
<path d="M893.144 439.303C895.693 442.897 898.92 441.362 901.12 439.521C898.139 439.712 895.323 439.546 893.144 439.303Z" fill="#1B1B43"/>
<path d="M901.12 439.521C902.393 438.457 903.323 437.293 903.573 436.967C903.603 436.927 903.563 436.882 903.514 436.885C896.971 437.274 892.548 436.802 891.879 436.723C891.835 436.718 891.812 436.768 891.829 436.809C892.237 437.834 892.68 438.649 893.144 439.303C895.323 439.546 898.139 439.712 901.12 439.521Z" fill="white"/>
<path opacity="0.4" d="M916.589 432.342C916.589 434.877 914.534 436.932 911.999 436.932C909.464 436.932 907.409 434.877 907.409 432.342C907.409 429.807 909.464 427.752 911.999 427.752C914.533 427.752 916.589 429.807 916.589 432.342Z" fill="#FE5B52"/>
<path d="M1198.75 1033.84H26V1035.6H1198.75V1033.84Z" fill="#1B1B43"/>
</g>
<defs>
<clipPath id="clip0_3_3">
<rect width="1224" height="1224" fill="white"/>
</clipPath>
</defs>
</svg>
